<mxfile host="app.diagrams.net" modified="2022-10-17T04:05:55.661Z" agent="5.0 (Windows NT 10.0; Win64; x64) AppleWebKit/537.36 (KHTML, like Gecko) Chrome/106.0.0.0 Safari/537.36 Edg/106.0.1370.37" etag="vaxL-oOR7aNVQjyjRGrV" version="20.4.0" type="github" pages="10">
  <diagram id="bA3dlDeZSmGhRniMjFoe" name="Level 0 DFD">
    <mxGraphModel dx="1038" dy="579" grid="1" gridSize="10" guides="1" tooltips="1" connect="1" arrows="1" fold="1" page="1" pageScale="1" pageWidth="850" pageHeight="1100" math="0" shadow="0">
      <root>
        <mxCell id="0" />
        <mxCell id="1" parent="0" />
        <mxCell id="RlWmC01HTTlc9XhrAdnI-1" style="edgeStyle=orthogonalEdgeStyle;rounded=1;orthogonalLoop=1;jettySize=auto;html=1;entryX=0;entryY=0.5;entryDx=0;entryDy=0;fontFamily=Helvetica;fontSize=12;fontColor=default;" parent="1" source="SOjs0wSMa2AJnpzku8tK-2" target="SOjs0wSMa2AJnpzku8tK-6" edge="1">
          <mxGeometry relative="1" as="geometry" />
        </mxCell>
        <mxCell id="RlWmC01HTTlc9XhrAdnI-2" style="edgeStyle=orthogonalEdgeStyle;rounded=1;orthogonalLoop=1;jettySize=auto;html=1;fontFamily=Helvetica;fontSize=12;fontColor=default;" parent="1" source="SOjs0wSMa2AJnpzku8tK-2" target="SOjs0wSMa2AJnpzku8tK-4" edge="1">
          <mxGeometry relative="1" as="geometry" />
        </mxCell>
        <mxCell id="SOjs0wSMa2AJnpzku8tK-2" value="&lt;b&gt;Easy Business Management System&lt;/b&gt;" style="shape=internalStorage;whiteSpace=wrap;html=1;backgroundOutline=1;rounded=1;dx=10;dy=10;arcSize=11;" parent="1" vertex="1">
          <mxGeometry x="320" y="400" width="190" height="110" as="geometry" />
        </mxCell>
        <mxCell id="SOjs0wSMa2AJnpzku8tK-11" style="edgeStyle=orthogonalEdgeStyle;rounded=1;orthogonalLoop=1;jettySize=auto;html=1;fontFamily=Helvetica;fontSize=12;fontColor=default;" parent="1" source="SOjs0wSMa2AJnpzku8tK-4" target="SOjs0wSMa2AJnpzku8tK-2" edge="1">
          <mxGeometry relative="1" as="geometry" />
        </mxCell>
        <mxCell id="SOjs0wSMa2AJnpzku8tK-4" value="Admin" style="rounded=0;whiteSpace=wrap;html=1;strokeColor=default;fontFamily=Helvetica;fontSize=12;fontColor=default;fillColor=#FFFFFF;" parent="1" vertex="1">
          <mxGeometry x="355" y="280" width="120" height="60" as="geometry" />
        </mxCell>
        <mxCell id="SOjs0wSMa2AJnpzku8tK-12" style="edgeStyle=orthogonalEdgeStyle;rounded=1;orthogonalLoop=1;jettySize=auto;html=1;entryX=0;entryY=0.5;entryDx=0;entryDy=0;fontFamily=Helvetica;fontSize=12;fontColor=default;" parent="1" source="SOjs0wSMa2AJnpzku8tK-5" target="SOjs0wSMa2AJnpzku8tK-2" edge="1">
          <mxGeometry relative="1" as="geometry" />
        </mxCell>
        <mxCell id="SOjs0wSMa2AJnpzku8tK-5" value="Sewer" style="rounded=0;whiteSpace=wrap;html=1;strokeColor=default;fontFamily=Helvetica;fontSize=12;fontColor=default;fillColor=#FFFFFF;" parent="1" vertex="1">
          <mxGeometry x="150" y="425" width="120" height="60" as="geometry" />
        </mxCell>
        <mxCell id="SOjs0wSMa2AJnpzku8tK-10" style="edgeStyle=orthogonalEdgeStyle;rounded=1;orthogonalLoop=1;jettySize=auto;html=1;entryX=1;entryY=0.5;entryDx=0;entryDy=0;fontFamily=Helvetica;fontSize=12;fontColor=default;" parent="1" source="SOjs0wSMa2AJnpzku8tK-6" target="SOjs0wSMa2AJnpzku8tK-2" edge="1">
          <mxGeometry relative="1" as="geometry" />
        </mxCell>
        <mxCell id="SOjs0wSMa2AJnpzku8tK-6" value="Customer Relations" style="rounded=0;whiteSpace=wrap;html=1;strokeColor=default;fontFamily=Helvetica;fontSize=12;fontColor=default;fillColor=#FFFFFF;" parent="1" vertex="1">
          <mxGeometry x="560" y="425" width="120" height="60" as="geometry" />
        </mxCell>
        <mxCell id="SOjs0wSMa2AJnpzku8tK-9" style="edgeStyle=orthogonalEdgeStyle;rounded=1;orthogonalLoop=1;jettySize=auto;html=1;entryX=0.5;entryY=1;entryDx=0;entryDy=0;fontFamily=Helvetica;fontSize=12;fontColor=default;" parent="1" source="SOjs0wSMa2AJnpzku8tK-7" target="SOjs0wSMa2AJnpzku8tK-2" edge="1">
          <mxGeometry relative="1" as="geometry" />
        </mxCell>
        <mxCell id="SOjs0wSMa2AJnpzku8tK-7" value="Packager" style="rounded=0;whiteSpace=wrap;html=1;strokeColor=default;fontFamily=Helvetica;fontSize=12;fontColor=default;fillColor=#FFFFFF;" parent="1" vertex="1">
          <mxGeometry x="355" y="580" width="120" height="60" as="geometry" />
        </mxCell>
      </root>
    </mxGraphModel>
  </diagram>
  <diagram id="6FnAvoRVASCSsdeu4zaB" name="Level 1 DFD">
    <mxGraphModel dx="2071" dy="681" grid="1" gridSize="10" guides="1" tooltips="1" connect="1" arrows="1" fold="1" page="1" pageScale="1" pageWidth="850" pageHeight="1100" math="0" shadow="0">
      <root>
        <mxCell id="0" />
        <mxCell id="1" parent="0" />
        <mxCell id="oFXnT8c0mGaghjBuJArQ-37" style="edgeStyle=orthogonalEdgeStyle;rounded=1;orthogonalLoop=1;jettySize=auto;html=1;exitX=1;exitY=0.25;exitDx=0;exitDy=0;entryX=0;entryY=0.378;entryDx=0;entryDy=0;entryPerimeter=0;fontFamily=Helvetica;fontSize=12;fontColor=default;" parent="1" source="R-2wgrGEdzPzMn_rtFow-2" target="oFXnT8c0mGaghjBuJArQ-2" edge="1">
          <mxGeometry relative="1" as="geometry" />
        </mxCell>
        <mxCell id="oFXnT8c0mGaghjBuJArQ-40" style="edgeStyle=orthogonalEdgeStyle;rounded=1;orthogonalLoop=1;jettySize=auto;html=1;entryX=0;entryY=0.75;entryDx=0;entryDy=0;fontFamily=Helvetica;fontSize=12;fontColor=default;" parent="1" source="R-2wgrGEdzPzMn_rtFow-2" target="R-2wgrGEdzPzMn_rtFow-3" edge="1">
          <mxGeometry relative="1" as="geometry">
            <Array as="points">
              <mxPoint x="-220" y="475" />
              <mxPoint x="-220" y="603" />
            </Array>
          </mxGeometry>
        </mxCell>
        <mxCell id="R-2wgrGEdzPzMn_rtFow-2" value="Inventory Management" style="shape=internalStorage;whiteSpace=wrap;html=1;backgroundOutline=1;rounded=1;strokeColor=default;fontFamily=Helvetica;fontSize=12;fontColor=default;fillColor=#FFFFFF;" parent="1" vertex="1">
          <mxGeometry x="-130" y="425" width="180" height="90" as="geometry" />
        </mxCell>
        <mxCell id="oFXnT8c0mGaghjBuJArQ-41" style="edgeStyle=orthogonalEdgeStyle;rounded=1;orthogonalLoop=1;jettySize=auto;html=1;entryX=1;entryY=0.25;entryDx=0;entryDy=0;fontFamily=Helvetica;fontSize=12;fontColor=default;" parent="1" source="R-2wgrGEdzPzMn_rtFow-3" target="oFXnT8c0mGaghjBuJArQ-15" edge="1">
          <mxGeometry relative="1" as="geometry">
            <Array as="points">
              <mxPoint x="130" y="580" />
              <mxPoint x="130" y="777" />
            </Array>
          </mxGeometry>
        </mxCell>
        <mxCell id="R-2wgrGEdzPzMn_rtFow-3" value="Customer Bank" style="shape=internalStorage;whiteSpace=wrap;html=1;backgroundOutline=1;rounded=1;strokeColor=default;fontFamily=Helvetica;fontSize=12;fontColor=default;fillColor=#FFFFFF;" parent="1" vertex="1">
          <mxGeometry x="-130" y="535" width="180" height="90" as="geometry" />
        </mxCell>
        <mxCell id="oFXnT8c0mGaghjBuJArQ-34" style="edgeStyle=orthogonalEdgeStyle;rounded=1;orthogonalLoop=1;jettySize=auto;html=1;entryX=1;entryY=0.5;entryDx=0;entryDy=0;fontFamily=Helvetica;fontSize=12;fontColor=default;" parent="1" source="R-2wgrGEdzPzMn_rtFow-4" target="oFXnT8c0mGaghjBuJArQ-1" edge="1">
          <mxGeometry relative="1" as="geometry" />
        </mxCell>
        <mxCell id="R-2wgrGEdzPzMn_rtFow-4" value="Business Analytics" style="shape=internalStorage;whiteSpace=wrap;html=1;backgroundOutline=1;rounded=1;strokeColor=default;fontFamily=Helvetica;fontSize=12;fontColor=default;fillColor=#FFFFFF;" parent="1" vertex="1">
          <mxGeometry x="-130" y="645" width="180" height="90" as="geometry" />
        </mxCell>
        <mxCell id="oFXnT8c0mGaghjBuJArQ-22" style="edgeStyle=orthogonalEdgeStyle;rounded=1;orthogonalLoop=1;jettySize=auto;html=1;fontFamily=Helvetica;fontSize=12;fontColor=default;" parent="1" source="R-2wgrGEdzPzMn_rtFow-5" target="R-2wgrGEdzPzMn_rtFow-3" edge="1">
          <mxGeometry relative="1" as="geometry">
            <Array as="points">
              <mxPoint x="-250" y="360" />
              <mxPoint x="-250" y="565" />
            </Array>
          </mxGeometry>
        </mxCell>
        <mxCell id="R-2wgrGEdzPzMn_rtFow-5" value="Import Screenshots" style="shape=internalStorage;whiteSpace=wrap;html=1;backgroundOutline=1;rounded=1;strokeColor=default;fontFamily=Helvetica;fontSize=12;fontColor=default;fillColor=#FFFFFF;" parent="1" vertex="1">
          <mxGeometry x="-130" y="315" width="180" height="90" as="geometry" />
        </mxCell>
        <mxCell id="oFXnT8c0mGaghjBuJArQ-17" style="edgeStyle=orthogonalEdgeStyle;rounded=1;orthogonalLoop=1;jettySize=auto;html=1;entryX=1;entryY=0.5;entryDx=0;entryDy=0;fontFamily=Helvetica;fontSize=12;fontColor=default;" parent="1" source="rWWr956jtK_pL64xfrSi-1" target="R-2wgrGEdzPzMn_rtFow-5" edge="1">
          <mxGeometry relative="1" as="geometry" />
        </mxCell>
        <mxCell id="rWWr956jtK_pL64xfrSi-1" value="Customer Relations" style="rounded=0;whiteSpace=wrap;html=1;strokeColor=default;fontFamily=Helvetica;fontSize=12;fontColor=default;fillColor=#FFFFFF;" parent="1" vertex="1">
          <mxGeometry x="210" y="330" width="120" height="60" as="geometry" />
        </mxCell>
        <mxCell id="oFXnT8c0mGaghjBuJArQ-1" value="Admin" style="rounded=0;whiteSpace=wrap;html=1;strokeColor=default;fontFamily=Helvetica;fontSize=12;fontColor=default;fillColor=#FFFFFF;" parent="1" vertex="1">
          <mxGeometry x="-370" y="660" width="120" height="60" as="geometry" />
        </mxCell>
        <mxCell id="oFXnT8c0mGaghjBuJArQ-39" style="edgeStyle=orthogonalEdgeStyle;rounded=1;orthogonalLoop=1;jettySize=auto;html=1;entryX=0.995;entryY=0.339;entryDx=0;entryDy=0;entryPerimeter=0;fontFamily=Helvetica;fontSize=12;fontColor=default;" parent="1" source="oFXnT8c0mGaghjBuJArQ-2" target="R-2wgrGEdzPzMn_rtFow-2" edge="1">
          <mxGeometry relative="1" as="geometry" />
        </mxCell>
        <mxCell id="m8GIqDMcMKHB5F9c5ay--1" style="edgeStyle=orthogonalEdgeStyle;rounded=0;orthogonalLoop=1;jettySize=auto;html=1;entryX=1;entryY=0.75;entryDx=0;entryDy=0;" parent="1" source="oFXnT8c0mGaghjBuJArQ-2" target="oFXnT8c0mGaghjBuJArQ-15" edge="1">
          <mxGeometry relative="1" as="geometry">
            <Array as="points">
              <mxPoint x="280" y="822" />
            </Array>
          </mxGeometry>
        </mxCell>
        <mxCell id="oFXnT8c0mGaghjBuJArQ-2" value="Sewer" style="rounded=0;whiteSpace=wrap;html=1;strokeColor=default;fontFamily=Helvetica;fontSize=12;fontColor=default;fillColor=#FFFFFF;" parent="1" vertex="1">
          <mxGeometry x="210" y="425" width="120" height="60" as="geometry" />
        </mxCell>
        <mxCell id="oFXnT8c0mGaghjBuJArQ-43" style="edgeStyle=orthogonalEdgeStyle;rounded=1;orthogonalLoop=1;jettySize=auto;html=1;entryX=1;entryY=0.25;entryDx=0;entryDy=0;fontFamily=Helvetica;fontSize=12;fontColor=default;" parent="1" source="oFXnT8c0mGaghjBuJArQ-4" target="oFXnT8c0mGaghjBuJArQ-13" edge="1">
          <mxGeometry relative="1" as="geometry">
            <Array as="points">
              <mxPoint x="-310" y="905" />
              <mxPoint x="350" y="905" />
              <mxPoint x="350" y="210" />
            </Array>
          </mxGeometry>
        </mxCell>
        <mxCell id="oFXnT8c0mGaghjBuJArQ-4" value="Packager" style="rounded=0;whiteSpace=wrap;html=1;strokeColor=default;fontFamily=Helvetica;fontSize=12;fontColor=default;fillColor=#FFFFFF;" parent="1" vertex="1">
          <mxGeometry x="-370" y="770" width="120" height="60" as="geometry" />
        </mxCell>
        <mxCell id="oFXnT8c0mGaghjBuJArQ-18" style="edgeStyle=orthogonalEdgeStyle;rounded=1;orthogonalLoop=1;jettySize=auto;html=1;entryX=0.5;entryY=0;entryDx=0;entryDy=0;fontFamily=Helvetica;fontSize=12;fontColor=default;" parent="1" source="oFXnT8c0mGaghjBuJArQ-13" target="rWWr956jtK_pL64xfrSi-1" edge="1">
          <mxGeometry relative="1" as="geometry" />
        </mxCell>
        <mxCell id="oFXnT8c0mGaghjBuJArQ-13" value="Customer" style="rounded=0;whiteSpace=wrap;html=1;strokeColor=default;fontFamily=Helvetica;fontSize=12;fontColor=default;fillColor=#FFFFFF;" parent="1" vertex="1">
          <mxGeometry x="210" y="195" width="120" height="60" as="geometry" />
        </mxCell>
        <mxCell id="oFXnT8c0mGaghjBuJArQ-30" style="edgeStyle=orthogonalEdgeStyle;rounded=1;orthogonalLoop=1;jettySize=auto;html=1;entryX=1;entryY=0.5;entryDx=0;entryDy=0;fontFamily=Helvetica;fontSize=12;fontColor=default;" parent="1" source="oFXnT8c0mGaghjBuJArQ-15" target="oFXnT8c0mGaghjBuJArQ-4" edge="1">
          <mxGeometry relative="1" as="geometry" />
        </mxCell>
        <mxCell id="oFXnT8c0mGaghjBuJArQ-35" style="edgeStyle=orthogonalEdgeStyle;rounded=1;orthogonalLoop=1;jettySize=auto;html=1;entryX=1;entryY=0.5;entryDx=0;entryDy=0;fontFamily=Helvetica;fontSize=12;fontColor=default;" parent="1" source="oFXnT8c0mGaghjBuJArQ-15" target="R-2wgrGEdzPzMn_rtFow-2" edge="1">
          <mxGeometry relative="1" as="geometry">
            <Array as="points">
              <mxPoint x="190" y="800" />
              <mxPoint x="190" y="470" />
            </Array>
          </mxGeometry>
        </mxCell>
        <mxCell id="oFXnT8c0mGaghjBuJArQ-42" style="edgeStyle=orthogonalEdgeStyle;rounded=1;orthogonalLoop=1;jettySize=auto;html=1;entryX=1.001;entryY=0.409;entryDx=0;entryDy=0;entryPerimeter=0;fontFamily=Helvetica;fontSize=12;fontColor=default;" parent="1" source="oFXnT8c0mGaghjBuJArQ-15" target="R-2wgrGEdzPzMn_rtFow-4" edge="1">
          <mxGeometry relative="1" as="geometry">
            <Array as="points">
              <mxPoint x="110" y="835" />
              <mxPoint x="110" y="682" />
            </Array>
          </mxGeometry>
        </mxCell>
        <mxCell id="oFXnT8c0mGaghjBuJArQ-15" value="Order Management" style="shape=internalStorage;whiteSpace=wrap;html=1;backgroundOutline=1;rounded=1;strokeColor=default;fontFamily=Helvetica;fontSize=12;fontColor=default;fillColor=#FFFFFF;" parent="1" vertex="1">
          <mxGeometry x="-130" y="755" width="180" height="90" as="geometry" />
        </mxCell>
        <mxCell id="g7Stl6t63PzhPRjppKbm-1" value="1" style="text;html=1;strokeColor=none;fillColor=none;align=center;verticalAlign=middle;whiteSpace=wrap;rounded=0;" parent="1" vertex="1">
          <mxGeometry x="-150" y="310" width="60" height="30" as="geometry" />
        </mxCell>
        <mxCell id="g7Stl6t63PzhPRjppKbm-2" value="5" style="text;html=1;strokeColor=none;fillColor=none;align=center;verticalAlign=middle;whiteSpace=wrap;rounded=0;" parent="1" vertex="1">
          <mxGeometry x="-150" y="750" width="60" height="30" as="geometry" />
        </mxCell>
        <mxCell id="g7Stl6t63PzhPRjppKbm-3" value="4" style="text;html=1;strokeColor=none;fillColor=none;align=center;verticalAlign=middle;whiteSpace=wrap;rounded=0;" parent="1" vertex="1">
          <mxGeometry x="-150" y="645" width="60" height="30" as="geometry" />
        </mxCell>
        <mxCell id="g7Stl6t63PzhPRjppKbm-4" value="3" style="text;html=1;strokeColor=none;fillColor=none;align=center;verticalAlign=middle;whiteSpace=wrap;rounded=0;" parent="1" vertex="1">
          <mxGeometry x="-150" y="530" width="60" height="30" as="geometry" />
        </mxCell>
        <mxCell id="g7Stl6t63PzhPRjppKbm-5" value="2" style="text;html=1;strokeColor=none;fillColor=none;align=center;verticalAlign=middle;whiteSpace=wrap;rounded=0;" parent="1" vertex="1">
          <mxGeometry x="-150" y="420" width="60" height="30" as="geometry" />
        </mxCell>
      </root>
    </mxGraphModel>
  </diagram>
  <diagram name="Revision Level 1 DFD" id="y4hhCLcQ9KflUSaE7k1M">
    <mxGraphModel dx="1888" dy="579" grid="1" gridSize="10" guides="1" tooltips="1" connect="1" arrows="1" fold="1" page="1" pageScale="1" pageWidth="850" pageHeight="1100" math="0" shadow="0">
      <root>
        <mxCell id="1fiT9Vd-eAIsVnIq5NhQ-0" />
        <mxCell id="1fiT9Vd-eAIsVnIq5NhQ-1" parent="1fiT9Vd-eAIsVnIq5NhQ-0" />
        <mxCell id="1fiT9Vd-eAIsVnIq5NhQ-3" style="edgeStyle=orthogonalEdgeStyle;rounded=1;orthogonalLoop=1;jettySize=auto;html=1;entryX=0;entryY=0.75;entryDx=0;entryDy=0;fontFamily=Helvetica;fontSize=12;fontColor=default;" edge="1" parent="1fiT9Vd-eAIsVnIq5NhQ-1" source="1fiT9Vd-eAIsVnIq5NhQ-4" target="1fiT9Vd-eAIsVnIq5NhQ-6">
          <mxGeometry relative="1" as="geometry">
            <Array as="points">
              <mxPoint x="-220" y="490" />
              <mxPoint x="-220" y="603" />
            </Array>
          </mxGeometry>
        </mxCell>
        <mxCell id="DGlkIr9KC82Vpyfydezd-12" style="edgeStyle=orthogonalEdgeStyle;rounded=0;orthogonalLoop=1;jettySize=auto;html=1;exitX=1;exitY=0.5;exitDx=0;exitDy=0;entryX=0;entryY=0.5;entryDx=0;entryDy=0;" edge="1" parent="1fiT9Vd-eAIsVnIq5NhQ-1" source="1fiT9Vd-eAIsVnIq5NhQ-4" target="1fiT9Vd-eAIsVnIq5NhQ-18">
          <mxGeometry relative="1" as="geometry" />
        </mxCell>
        <mxCell id="1fiT9Vd-eAIsVnIq5NhQ-4" value="Inventory Management" style="shape=internalStorage;whiteSpace=wrap;html=1;backgroundOutline=1;rounded=1;strokeColor=default;fontFamily=Helvetica;fontSize=12;fontColor=default;fillColor=#FFFFFF;" vertex="1" parent="1fiT9Vd-eAIsVnIq5NhQ-1">
          <mxGeometry x="-130" y="425" width="180" height="90" as="geometry" />
        </mxCell>
        <mxCell id="DGlkIr9KC82Vpyfydezd-14" style="edgeStyle=orthogonalEdgeStyle;rounded=0;orthogonalLoop=1;jettySize=auto;html=1;exitX=1;exitY=0.5;exitDx=0;exitDy=0;entryX=0.5;entryY=1;entryDx=0;entryDy=0;" edge="1" parent="1fiT9Vd-eAIsVnIq5NhQ-1" source="1fiT9Vd-eAIsVnIq5NhQ-6" target="1fiT9Vd-eAIsVnIq5NhQ-18">
          <mxGeometry relative="1" as="geometry">
            <mxPoint x="270" y="510" as="targetPoint" />
          </mxGeometry>
        </mxCell>
        <mxCell id="DGlkIr9KC82Vpyfydezd-15" style="edgeStyle=orthogonalEdgeStyle;rounded=0;orthogonalLoop=1;jettySize=auto;html=1;entryX=0.5;entryY=1;entryDx=0;entryDy=0;" edge="1" parent="1fiT9Vd-eAIsVnIq5NhQ-1" source="1fiT9Vd-eAIsVnIq5NhQ-6" target="1fiT9Vd-eAIsVnIq5NhQ-16">
          <mxGeometry relative="1" as="geometry" />
        </mxCell>
        <mxCell id="1fiT9Vd-eAIsVnIq5NhQ-6" value="Customer Infobank" style="shape=internalStorage;whiteSpace=wrap;html=1;backgroundOutline=1;rounded=1;strokeColor=default;fontFamily=Helvetica;fontSize=12;fontColor=default;fillColor=#FFFFFF;" vertex="1" parent="1fiT9Vd-eAIsVnIq5NhQ-1">
          <mxGeometry x="-130" y="535" width="180" height="90" as="geometry" />
        </mxCell>
        <mxCell id="1fiT9Vd-eAIsVnIq5NhQ-7" style="edgeStyle=orthogonalEdgeStyle;rounded=1;orthogonalLoop=1;jettySize=auto;html=1;entryX=1;entryY=0.5;entryDx=0;entryDy=0;fontFamily=Helvetica;fontSize=12;fontColor=default;" edge="1" parent="1fiT9Vd-eAIsVnIq5NhQ-1" source="1fiT9Vd-eAIsVnIq5NhQ-8" target="1fiT9Vd-eAIsVnIq5NhQ-13">
          <mxGeometry relative="1" as="geometry" />
        </mxCell>
        <mxCell id="1fiT9Vd-eAIsVnIq5NhQ-8" value="Business Analytics" style="shape=internalStorage;whiteSpace=wrap;html=1;backgroundOutline=1;rounded=1;strokeColor=default;fontFamily=Helvetica;fontSize=12;fontColor=default;fillColor=#FFFFFF;" vertex="1" parent="1fiT9Vd-eAIsVnIq5NhQ-1">
          <mxGeometry x="-130" y="645" width="180" height="90" as="geometry" />
        </mxCell>
        <mxCell id="1fiT9Vd-eAIsVnIq5NhQ-9" style="edgeStyle=orthogonalEdgeStyle;rounded=1;orthogonalLoop=1;jettySize=auto;html=1;fontFamily=Helvetica;fontSize=12;fontColor=default;" edge="1" parent="1fiT9Vd-eAIsVnIq5NhQ-1" source="1fiT9Vd-eAIsVnIq5NhQ-10" target="1fiT9Vd-eAIsVnIq5NhQ-6">
          <mxGeometry relative="1" as="geometry">
            <Array as="points">
              <mxPoint x="-200" y="380" />
              <mxPoint x="-200" y="565" />
            </Array>
          </mxGeometry>
        </mxCell>
        <mxCell id="DGlkIr9KC82Vpyfydezd-9" style="edgeStyle=orthogonalEdgeStyle;rounded=0;orthogonalLoop=1;jettySize=auto;html=1;exitX=0;exitY=0.5;exitDx=0;exitDy=0;entryX=1;entryY=0.5;entryDx=0;entryDy=0;" edge="1" parent="1fiT9Vd-eAIsVnIq5NhQ-1" source="1fiT9Vd-eAIsVnIq5NhQ-10" target="1fiT9Vd-eAIsVnIq5NhQ-16">
          <mxGeometry relative="1" as="geometry" />
        </mxCell>
        <mxCell id="DGlkIr9KC82Vpyfydezd-11" style="edgeStyle=orthogonalEdgeStyle;rounded=0;orthogonalLoop=1;jettySize=auto;html=1;exitX=0.5;exitY=1;exitDx=0;exitDy=0;entryX=0.5;entryY=0;entryDx=0;entryDy=0;" edge="1" parent="1fiT9Vd-eAIsVnIq5NhQ-1" source="1fiT9Vd-eAIsVnIq5NhQ-10" target="1fiT9Vd-eAIsVnIq5NhQ-4">
          <mxGeometry relative="1" as="geometry" />
        </mxCell>
        <mxCell id="Nd4R7TPA6eVDvqzK_I76-0" style="edgeStyle=orthogonalEdgeStyle;rounded=0;orthogonalLoop=1;jettySize=auto;html=1;exitX=1;exitY=0.75;exitDx=0;exitDy=0;entryX=1;entryY=0.5;entryDx=0;entryDy=0;" edge="1" parent="1fiT9Vd-eAIsVnIq5NhQ-1" source="1fiT9Vd-eAIsVnIq5NhQ-10" target="1fiT9Vd-eAIsVnIq5NhQ-8">
          <mxGeometry relative="1" as="geometry">
            <Array as="points">
              <mxPoint x="50" y="370" />
              <mxPoint x="100" y="370" />
              <mxPoint x="100" y="690" />
            </Array>
          </mxGeometry>
        </mxCell>
        <mxCell id="1fiT9Vd-eAIsVnIq5NhQ-10" value="Order Management" style="shape=internalStorage;whiteSpace=wrap;html=1;backgroundOutline=1;rounded=1;strokeColor=default;fontFamily=Helvetica;fontSize=12;fontColor=default;fillColor=#FFFFFF;" vertex="1" parent="1fiT9Vd-eAIsVnIq5NhQ-1">
          <mxGeometry x="-130" y="315" width="180" height="90" as="geometry" />
        </mxCell>
        <mxCell id="1fiT9Vd-eAIsVnIq5NhQ-11" style="edgeStyle=orthogonalEdgeStyle;rounded=1;orthogonalLoop=1;jettySize=auto;html=1;entryX=1;entryY=0.5;entryDx=0;entryDy=0;fontFamily=Helvetica;fontSize=12;fontColor=default;" edge="1" parent="1fiT9Vd-eAIsVnIq5NhQ-1" source="1fiT9Vd-eAIsVnIq5NhQ-12" target="1fiT9Vd-eAIsVnIq5NhQ-10">
          <mxGeometry relative="1" as="geometry" />
        </mxCell>
        <mxCell id="1fiT9Vd-eAIsVnIq5NhQ-12" value="Customer Relations" style="rounded=0;whiteSpace=wrap;html=1;strokeColor=default;fontFamily=Helvetica;fontSize=12;fontColor=default;fillColor=#FFFFFF;" vertex="1" parent="1fiT9Vd-eAIsVnIq5NhQ-1">
          <mxGeometry x="210" y="330" width="120" height="60" as="geometry" />
        </mxCell>
        <mxCell id="1fiT9Vd-eAIsVnIq5NhQ-13" value="Admin" style="rounded=0;whiteSpace=wrap;html=1;strokeColor=default;fontFamily=Helvetica;fontSize=12;fontColor=default;fillColor=#FFFFFF;" vertex="1" parent="1fiT9Vd-eAIsVnIq5NhQ-1">
          <mxGeometry x="-370" y="660" width="120" height="60" as="geometry" />
        </mxCell>
        <mxCell id="DGlkIr9KC82Vpyfydezd-18" style="edgeStyle=orthogonalEdgeStyle;rounded=0;orthogonalLoop=1;jettySize=auto;html=1;exitX=0.75;exitY=1;exitDx=0;exitDy=0;entryX=0;entryY=0.5;entryDx=0;entryDy=0;" edge="1" parent="1fiT9Vd-eAIsVnIq5NhQ-1" source="1fiT9Vd-eAIsVnIq5NhQ-16" target="1fiT9Vd-eAIsVnIq5NhQ-4">
          <mxGeometry relative="1" as="geometry">
            <Array as="points">
              <mxPoint x="-300" y="390" />
              <mxPoint x="-300" y="470" />
            </Array>
          </mxGeometry>
        </mxCell>
        <mxCell id="1fiT9Vd-eAIsVnIq5NhQ-16" value="Sewer" style="rounded=0;whiteSpace=wrap;html=1;strokeColor=default;fontFamily=Helvetica;fontSize=12;fontColor=default;fillColor=#FFFFFF;" vertex="1" parent="1fiT9Vd-eAIsVnIq5NhQ-1">
          <mxGeometry x="-380" y="330" width="120" height="60" as="geometry" />
        </mxCell>
        <mxCell id="DGlkIr9KC82Vpyfydezd-13" style="edgeStyle=orthogonalEdgeStyle;rounded=0;orthogonalLoop=1;jettySize=auto;html=1;exitX=0.5;exitY=0;exitDx=0;exitDy=0;entryX=0.5;entryY=1;entryDx=0;entryDy=0;" edge="1" parent="1fiT9Vd-eAIsVnIq5NhQ-1" source="1fiT9Vd-eAIsVnIq5NhQ-18" target="1fiT9Vd-eAIsVnIq5NhQ-12">
          <mxGeometry relative="1" as="geometry" />
        </mxCell>
        <mxCell id="1fiT9Vd-eAIsVnIq5NhQ-18" value="Packager" style="rounded=0;whiteSpace=wrap;html=1;strokeColor=default;fontFamily=Helvetica;fontSize=12;fontColor=default;fillColor=#FFFFFF;" vertex="1" parent="1fiT9Vd-eAIsVnIq5NhQ-1">
          <mxGeometry x="210" y="440" width="120" height="60" as="geometry" />
        </mxCell>
        <mxCell id="1fiT9Vd-eAIsVnIq5NhQ-19" style="edgeStyle=orthogonalEdgeStyle;rounded=1;orthogonalLoop=1;jettySize=auto;html=1;entryX=0.5;entryY=0;entryDx=0;entryDy=0;fontFamily=Helvetica;fontSize=12;fontColor=default;" edge="1" parent="1fiT9Vd-eAIsVnIq5NhQ-1" source="1fiT9Vd-eAIsVnIq5NhQ-20" target="1fiT9Vd-eAIsVnIq5NhQ-12">
          <mxGeometry relative="1" as="geometry" />
        </mxCell>
        <mxCell id="1fiT9Vd-eAIsVnIq5NhQ-20" value="Customer" style="rounded=0;whiteSpace=wrap;html=1;strokeColor=default;fontFamily=Helvetica;fontSize=12;fontColor=default;fillColor=#FFFFFF;" vertex="1" parent="1fiT9Vd-eAIsVnIq5NhQ-1">
          <mxGeometry x="210" y="195" width="120" height="60" as="geometry" />
        </mxCell>
        <mxCell id="1fiT9Vd-eAIsVnIq5NhQ-25" value="1" style="text;html=1;strokeColor=none;fillColor=none;align=center;verticalAlign=middle;whiteSpace=wrap;rounded=0;" vertex="1" parent="1fiT9Vd-eAIsVnIq5NhQ-1">
          <mxGeometry x="-150" y="313" width="60" height="20" as="geometry" />
        </mxCell>
        <mxCell id="1fiT9Vd-eAIsVnIq5NhQ-27" value="4" style="text;html=1;strokeColor=none;fillColor=none;align=center;verticalAlign=middle;whiteSpace=wrap;rounded=0;" vertex="1" parent="1fiT9Vd-eAIsVnIq5NhQ-1">
          <mxGeometry x="-150" y="645" width="60" height="30" as="geometry" />
        </mxCell>
        <mxCell id="1fiT9Vd-eAIsVnIq5NhQ-28" value="3" style="text;html=1;strokeColor=none;fillColor=none;align=center;verticalAlign=middle;whiteSpace=wrap;rounded=0;" vertex="1" parent="1fiT9Vd-eAIsVnIq5NhQ-1">
          <mxGeometry x="-150" y="530" width="60" height="30" as="geometry" />
        </mxCell>
        <mxCell id="1fiT9Vd-eAIsVnIq5NhQ-29" value="2" style="text;html=1;strokeColor=none;fillColor=none;align=center;verticalAlign=middle;whiteSpace=wrap;rounded=0;" vertex="1" parent="1fiT9Vd-eAIsVnIq5NhQ-1">
          <mxGeometry x="-150" y="420" width="60" height="30" as="geometry" />
        </mxCell>
        <mxCell id="DGlkIr9KC82Vpyfydezd-10" style="edgeStyle=orthogonalEdgeStyle;rounded=0;orthogonalLoop=1;jettySize=auto;html=1;exitX=0;exitY=0.5;exitDx=0;exitDy=0;entryX=0;entryY=0.389;entryDx=0;entryDy=0;entryPerimeter=0;" edge="1" parent="1fiT9Vd-eAIsVnIq5NhQ-1" target="1fiT9Vd-eAIsVnIq5NhQ-10">
          <mxGeometry relative="1" as="geometry">
            <mxPoint x="-260" y="350" as="sourcePoint" />
            <mxPoint x="-180" y="350" as="targetPoint" />
          </mxGeometry>
        </mxCell>
      </root>
    </mxGraphModel>
  </diagram>
  <diagram id="rXS8knwM6X45NrJREj6B" name="Level 2 DFD (Order Queue List)">
    <mxGraphModel dx="1038" dy="579" grid="1" gridSize="10" guides="1" tooltips="1" connect="1" arrows="1" fold="1" page="1" pageScale="1" pageWidth="850" pageHeight="1100" math="0" shadow="0">
      <root>
        <mxCell id="0" />
        <mxCell id="1" parent="0" />
        <mxCell id="DYRf-ZZt3cct-153R33X-4" style="edgeStyle=orthogonalEdgeStyle;rounded=0;orthogonalLoop=1;jettySize=auto;html=1;" parent="1" source="DYRf-ZZt3cct-153R33X-1" target="DYRf-ZZt3cct-153R33X-2" edge="1">
          <mxGeometry relative="1" as="geometry" />
        </mxCell>
        <mxCell id="5_2813eQHdgGQaD4lmZm-12" style="edgeStyle=orthogonalEdgeStyle;rounded=0;orthogonalLoop=1;jettySize=auto;html=1;" parent="1" source="DYRf-ZZt3cct-153R33X-1" target="5_2813eQHdgGQaD4lmZm-9" edge="1">
          <mxGeometry relative="1" as="geometry" />
        </mxCell>
        <mxCell id="DYRf-ZZt3cct-153R33X-1" value="Customer Relations" style="rounded=0;whiteSpace=wrap;html=1;strokeColor=default;fontFamily=Helvetica;fontSize=12;fontColor=default;fillColor=#FFFFFF;" parent="1" vertex="1">
          <mxGeometry x="305" y="140" width="120" height="60" as="geometry" />
        </mxCell>
        <mxCell id="DYRf-ZZt3cct-153R33X-3" style="edgeStyle=orthogonalEdgeStyle;rounded=0;orthogonalLoop=1;jettySize=auto;html=1;entryX=1;entryY=0.5;entryDx=0;entryDy=0;" parent="1" source="DYRf-ZZt3cct-153R33X-2" target="DYRf-ZZt3cct-153R33X-1" edge="1">
          <mxGeometry relative="1" as="geometry" />
        </mxCell>
        <mxCell id="DYRf-ZZt3cct-153R33X-2" value="Customer" style="rounded=0;whiteSpace=wrap;html=1;strokeColor=default;fontFamily=Helvetica;fontSize=12;fontColor=default;fillColor=#FFFFFF;" parent="1" vertex="1">
          <mxGeometry x="520" y="140" width="120" height="60" as="geometry" />
        </mxCell>
        <mxCell id="y1qT6aI9dCKPfBpN73sy-6" style="edgeStyle=orthogonalEdgeStyle;rounded=0;orthogonalLoop=1;jettySize=auto;html=1;exitX=1;exitY=0.5;exitDx=0;exitDy=0;entryX=0;entryY=0.5;entryDx=0;entryDy=0;entryPerimeter=0;" parent="1" source="5_2813eQHdgGQaD4lmZm-1" target="y1qT6aI9dCKPfBpN73sy-5" edge="1">
          <mxGeometry relative="1" as="geometry" />
        </mxCell>
        <mxCell id="5_2813eQHdgGQaD4lmZm-1" value="Order Management" style="shape=internalStorage;whiteSpace=wrap;html=1;backgroundOutline=1;rounded=1;strokeColor=default;fontFamily=Helvetica;fontSize=12;fontColor=default;fillColor=#FFFFFF;dx=5;dy=10;" parent="1" vertex="1">
          <mxGeometry x="107.5" y="270" width="135" height="90" as="geometry" />
        </mxCell>
        <mxCell id="5_2813eQHdgGQaD4lmZm-3" value="Inquiry" style="text;html=1;strokeColor=none;fillColor=none;align=center;verticalAlign=middle;whiteSpace=wrap;rounded=0;" parent="1" vertex="1">
          <mxGeometry x="440" y="140" width="60" height="30" as="geometry" />
        </mxCell>
        <mxCell id="5_2813eQHdgGQaD4lmZm-17" value="" style="group" parent="1" vertex="1" connectable="0">
          <mxGeometry x="110" y="147.5" width="130" height="45" as="geometry" />
        </mxCell>
        <mxCell id="5_2813eQHdgGQaD4lmZm-9" value="D" style="html=1;dashed=0;whitespace=wrap;shape=mxgraph.dfd.dataStoreID;align=left;spacingLeft=3;points=[[0,0],[0.5,0],[1,0],[0,0.5],[1,0.5],[0,1],[0.5,1],[1,1]];" parent="5_2813eQHdgGQaD4lmZm-17" vertex="1">
          <mxGeometry width="130" height="45" as="geometry" />
        </mxCell>
        <mxCell id="5_2813eQHdgGQaD4lmZm-10" value="Order Details" style="text;html=1;strokeColor=none;fillColor=none;align=center;verticalAlign=middle;whiteSpace=wrap;rounded=0;" parent="5_2813eQHdgGQaD4lmZm-17" vertex="1">
          <mxGeometry x="40" y="7.5" width="60" height="30" as="geometry" />
        </mxCell>
        <mxCell id="5_2813eQHdgGQaD4lmZm-18" style="edgeStyle=orthogonalEdgeStyle;rounded=0;orthogonalLoop=1;jettySize=auto;html=1;entryX=0.5;entryY=0;entryDx=0;entryDy=0;" parent="1" source="5_2813eQHdgGQaD4lmZm-9" target="5_2813eQHdgGQaD4lmZm-1" edge="1">
          <mxGeometry relative="1" as="geometry" />
        </mxCell>
        <mxCell id="y1qT6aI9dCKPfBpN73sy-5" value="Customer Database" style="shape=cylinder3;whiteSpace=wrap;html=1;boundedLbl=1;backgroundOutline=1;size=15;" parent="1" vertex="1">
          <mxGeometry x="325" y="265" width="80" height="100" as="geometry" />
        </mxCell>
      </root>
    </mxGraphModel>
  </diagram>
  <diagram name="Revision Level 2 DFD (Order Queue List)" id="4nZJUk-qal9vqFBylfYd">
    <mxGraphModel dx="1038" dy="579" grid="1" gridSize="10" guides="1" tooltips="1" connect="1" arrows="1" fold="1" page="1" pageScale="1" pageWidth="850" pageHeight="1100" math="0" shadow="0">
      <root>
        <mxCell id="vyPgLdfNCkiu57tK5SRO-0" />
        <mxCell id="vyPgLdfNCkiu57tK5SRO-1" parent="vyPgLdfNCkiu57tK5SRO-0" />
        <mxCell id="m1OcZTEyi7w2N_BTY1ol-5" style="edgeStyle=orthogonalEdgeStyle;rounded=0;orthogonalLoop=1;jettySize=auto;html=1;exitX=0.5;exitY=1;exitDx=0;exitDy=0;entryX=0.5;entryY=0;entryDx=0;entryDy=0;" edge="1" parent="vyPgLdfNCkiu57tK5SRO-1" source="jvLd8DcnQAI-piNBchvQ-0">
          <mxGeometry relative="1" as="geometry">
            <mxPoint x="420" y="120" as="targetPoint" />
          </mxGeometry>
        </mxCell>
        <mxCell id="jvLd8DcnQAI-piNBchvQ-0" value="Customer Places Order" style="rounded=0;whiteSpace=wrap;html=1;strokeColor=default;fontFamily=Helvetica;fontSize=12;fontColor=default;fillColor=#FFFFFF;" vertex="1" parent="vyPgLdfNCkiu57tK5SRO-1">
          <mxGeometry x="360" y="30" width="120" height="60" as="geometry" />
        </mxCell>
        <mxCell id="m1OcZTEyi7w2N_BTY1ol-7" style="edgeStyle=orthogonalEdgeStyle;rounded=0;orthogonalLoop=1;jettySize=auto;html=1;exitX=0.5;exitY=1;exitDx=0;exitDy=0;entryX=0.5;entryY=0;entryDx=0;entryDy=0;" edge="1" parent="vyPgLdfNCkiu57tK5SRO-1" target="jvLd8DcnQAI-piNBchvQ-6">
          <mxGeometry relative="1" as="geometry">
            <mxPoint x="415" y="410" as="sourcePoint" />
          </mxGeometry>
        </mxCell>
        <mxCell id="9GzxmiuzxQFLxnETi6z3-0" style="edgeStyle=orthogonalEdgeStyle;rounded=0;orthogonalLoop=1;jettySize=auto;html=1;exitX=1;exitY=0.5;exitDx=0;exitDy=0;entryX=0;entryY=0.5;entryDx=0;entryDy=0;" edge="1" parent="vyPgLdfNCkiu57tK5SRO-1" source="jvLd8DcnQAI-piNBchvQ-6" target="m1OcZTEyi7w2N_BTY1ol-8">
          <mxGeometry relative="1" as="geometry" />
        </mxCell>
        <mxCell id="jvLd8DcnQAI-piNBchvQ-6" value="Add new report to Order Management" style="rounded=0;whiteSpace=wrap;html=1;strokeColor=default;fontFamily=Helvetica;fontSize=12;fontColor=default;fillColor=#FFFFFF;" vertex="1" parent="vyPgLdfNCkiu57tK5SRO-1">
          <mxGeometry x="355" y="450" width="120" height="60" as="geometry" />
        </mxCell>
        <mxCell id="PRtp8kR5PZO5Lq21vr1k-3" style="edgeStyle=orthogonalEdgeStyle;rounded=0;orthogonalLoop=1;jettySize=auto;html=1;entryX=0;entryY=0.5;entryDx=0;entryDy=0;" edge="1" parent="vyPgLdfNCkiu57tK5SRO-1" target="m1OcZTEyi7w2N_BTY1ol-4">
          <mxGeometry relative="1" as="geometry">
            <mxPoint x="554" y="380" as="targetPoint" />
            <mxPoint x="484" y="380" as="sourcePoint" />
          </mxGeometry>
        </mxCell>
        <mxCell id="m1OcZTEyi7w2N_BTY1ol-4" value="Add information to Customer Infobank" style="rounded=0;whiteSpace=wrap;html=1;strokeColor=default;fontFamily=Helvetica;fontSize=12;fontColor=default;fillColor=#FFFFFF;" vertex="1" parent="vyPgLdfNCkiu57tK5SRO-1">
          <mxGeometry x="575" y="350" width="120" height="60" as="geometry" />
        </mxCell>
        <mxCell id="m1OcZTEyi7w2N_BTY1ol-8" value="Notify the role who is in charge for the task" style="rounded=0;whiteSpace=wrap;html=1;strokeColor=default;fontFamily=Helvetica;fontSize=12;fontColor=default;fillColor=#FFFFFF;" vertex="1" parent="vyPgLdfNCkiu57tK5SRO-1">
          <mxGeometry x="575" y="450" width="120" height="60" as="geometry" />
        </mxCell>
        <mxCell id="Nxm5xJL6nCxTpszpzN9w-7" value="" style="shape=internalStorage;whiteSpace=wrap;html=1;backgroundOutline=1;rounded=1;strokeColor=default;fontFamily=Helvetica;fontSize=12;fontColor=default;fillColor=#FFFFFF;" vertex="1" parent="vyPgLdfNCkiu57tK5SRO-1">
          <mxGeometry x="359" y="340" width="126" height="70" as="geometry" />
        </mxCell>
        <mxCell id="Nxm5xJL6nCxTpszpzN9w-8" value="1.5" style="text;html=1;strokeColor=none;fillColor=none;align=center;verticalAlign=middle;whiteSpace=wrap;rounded=0;" vertex="1" parent="vyPgLdfNCkiu57tK5SRO-1">
          <mxGeometry x="355" y="341" width="30" height="20" as="geometry" />
        </mxCell>
        <mxCell id="Nxm5xJL6nCxTpszpzN9w-9" value="&lt;span style=&quot;color: rgb(0, 0, 0); font-family: Helvetica; font-size: 12px; font-style: normal; font-variant-ligatures: normal; font-variant-caps: normal; font-weight: 400; letter-spacing: normal; orphans: 2; text-indent: 0px; text-transform: none; widows: 2; word-spacing: 0px; -webkit-text-stroke-width: 0px; background-color: rgb(248, 249, 250); text-decoration-thickness: initial; text-decoration-style: initial; text-decoration-color: initial; float: none; display: inline !important;&quot;&gt;Generate order report&lt;/span&gt;" style="text;whiteSpace=wrap;html=1;align=center;" vertex="1" parent="vyPgLdfNCkiu57tK5SRO-1">
          <mxGeometry x="383" y="364" width="93" height="40" as="geometry" />
        </mxCell>
        <mxCell id="Nxm5xJL6nCxTpszpzN9w-10" value="" style="group" vertex="1" connectable="0" parent="vyPgLdfNCkiu57tK5SRO-1">
          <mxGeometry x="328" y="120" width="184" height="70" as="geometry" />
        </mxCell>
        <mxCell id="Nxm5xJL6nCxTpszpzN9w-1" value="" style="shape=internalStorage;whiteSpace=wrap;html=1;backgroundOutline=1;rounded=1;strokeColor=default;fontFamily=Helvetica;fontSize=12;fontColor=default;fillColor=#FFFFFF;" vertex="1" parent="Nxm5xJL6nCxTpszpzN9w-10">
          <mxGeometry x="4" width="180" height="70" as="geometry" />
        </mxCell>
        <mxCell id="Nxm5xJL6nCxTpszpzN9w-2" value="1.1" style="text;html=1;strokeColor=none;fillColor=none;align=center;verticalAlign=middle;whiteSpace=wrap;rounded=0;" vertex="1" parent="Nxm5xJL6nCxTpszpzN9w-10">
          <mxGeometry y="1" width="30" height="20" as="geometry" />
        </mxCell>
        <mxCell id="Nxm5xJL6nCxTpszpzN9w-3" value="&lt;span style=&quot;color: rgb(0, 0, 0); font-family: Helvetica; font-size: 12px; font-style: normal; font-variant-ligatures: normal; font-variant-caps: normal; font-weight: 400; letter-spacing: normal; orphans: 2; text-indent: 0px; text-transform: none; widows: 2; word-spacing: 0px; -webkit-text-stroke-width: 0px; background-color: rgb(248, 249, 250); text-decoration-thickness: initial; text-decoration-style: initial; text-decoration-color: initial; float: none; display: inline !important;&quot;&gt;Import customer information via screenshot&lt;/span&gt;" style="text;whiteSpace=wrap;html=1;align=center;" vertex="1" parent="Nxm5xJL6nCxTpszpzN9w-10">
          <mxGeometry x="27" y="24" width="150" height="40" as="geometry" />
        </mxCell>
        <mxCell id="Nxm5xJL6nCxTpszpzN9w-12" value="" style="group" vertex="1" connectable="0" parent="vyPgLdfNCkiu57tK5SRO-1">
          <mxGeometry x="328" y="220" width="184" height="70" as="geometry" />
        </mxCell>
        <mxCell id="Nxm5xJL6nCxTpszpzN9w-4" value="" style="shape=internalStorage;whiteSpace=wrap;html=1;backgroundOutline=1;rounded=1;strokeColor=default;fontFamily=Helvetica;fontSize=12;fontColor=default;fillColor=#FFFFFF;" vertex="1" parent="Nxm5xJL6nCxTpszpzN9w-12">
          <mxGeometry x="4" width="180" height="70" as="geometry" />
        </mxCell>
        <mxCell id="Nxm5xJL6nCxTpszpzN9w-5" value="1.2" style="text;html=1;strokeColor=none;fillColor=none;align=center;verticalAlign=middle;whiteSpace=wrap;rounded=0;" vertex="1" parent="Nxm5xJL6nCxTpszpzN9w-12">
          <mxGeometry y="1" width="30" height="20" as="geometry" />
        </mxCell>
        <mxCell id="Nxm5xJL6nCxTpszpzN9w-6" value="&lt;span style=&quot;color: rgb(0, 0, 0); font-family: Helvetica; font-size: 12px; font-style: normal; font-variant-ligatures: normal; font-variant-caps: normal; font-weight: 400; letter-spacing: normal; orphans: 2; text-indent: 0px; text-transform: none; widows: 2; word-spacing: 0px; -webkit-text-stroke-width: 0px; background-color: rgb(248, 249, 250); text-decoration-thickness: initial; text-decoration-style: initial; text-decoration-color: initial; float: none; display: inline !important;&quot;&gt;Encode product order of customer&lt;/span&gt;" style="text;whiteSpace=wrap;html=1;align=center;" vertex="1" parent="Nxm5xJL6nCxTpszpzN9w-12">
          <mxGeometry x="27" y="24" width="150" height="40" as="geometry" />
        </mxCell>
        <mxCell id="Nxm5xJL6nCxTpszpzN9w-15" style="edgeStyle=orthogonalEdgeStyle;rounded=0;orthogonalLoop=1;jettySize=auto;html=1;exitX=0.5;exitY=1;exitDx=0;exitDy=0;entryX=0.5;entryY=0;entryDx=0;entryDy=0;" edge="1" parent="vyPgLdfNCkiu57tK5SRO-1" source="Nxm5xJL6nCxTpszpzN9w-1" target="Nxm5xJL6nCxTpszpzN9w-4">
          <mxGeometry relative="1" as="geometry" />
        </mxCell>
        <mxCell id="Nxm5xJL6nCxTpszpzN9w-16" value="" style="group" vertex="1" connectable="0" parent="vyPgLdfNCkiu57tK5SRO-1">
          <mxGeometry x="75" y="215" width="160" height="89" as="geometry" />
        </mxCell>
        <mxCell id="Nxm5xJL6nCxTpszpzN9w-17" value="" style="shape=internalStorage;whiteSpace=wrap;html=1;backgroundOutline=1;rounded=1;strokeColor=default;fontFamily=Helvetica;fontSize=12;fontColor=default;fillColor=#FFFFFF;" vertex="1" parent="Nxm5xJL6nCxTpszpzN9w-16">
          <mxGeometry x="3.4782608695652173" width="156.52173913043475" height="89" as="geometry" />
        </mxCell>
        <mxCell id="Nxm5xJL6nCxTpszpzN9w-18" value="1.3" style="text;html=1;strokeColor=none;fillColor=none;align=center;verticalAlign=middle;whiteSpace=wrap;rounded=0;" vertex="1" parent="Nxm5xJL6nCxTpszpzN9w-16">
          <mxGeometry y="1.2714285714285714" width="26.08695652173913" height="25.428571428571423" as="geometry" />
        </mxCell>
        <mxCell id="Nxm5xJL6nCxTpszpzN9w-19" value="&lt;span style=&quot;color: rgb(0, 0, 0); font-family: Helvetica; font-size: 12px; font-style: normal; font-variant-ligatures: normal; font-variant-caps: normal; font-weight: 400; letter-spacing: normal; orphans: 2; text-indent: 0px; text-transform: none; widows: 2; word-spacing: 0px; -webkit-text-stroke-width: 0px; background-color: rgb(248, 249, 250); text-decoration-thickness: initial; text-decoration-style: initial; text-decoration-color: initial; float: none; display: inline !important;&quot;&gt;Check the Inventory if item is available on hand&lt;/span&gt;" style="text;whiteSpace=wrap;html=1;align=center;" vertex="1" parent="Nxm5xJL6nCxTpszpzN9w-16">
          <mxGeometry x="25.217391304347824" y="25.342975931677017" width="130.43478260869566" height="50.85714285714285" as="geometry" />
        </mxCell>
        <mxCell id="Nxm5xJL6nCxTpszpzN9w-21" value="" style="group" vertex="1" connectable="0" parent="vyPgLdfNCkiu57tK5SRO-1">
          <mxGeometry x="75" y="340" width="160" height="80" as="geometry" />
        </mxCell>
        <mxCell id="Nxm5xJL6nCxTpszpzN9w-22" value="" style="shape=internalStorage;whiteSpace=wrap;html=1;backgroundOutline=1;rounded=1;strokeColor=default;fontFamily=Helvetica;fontSize=12;fontColor=default;fillColor=#FFFFFF;" vertex="1" parent="Nxm5xJL6nCxTpszpzN9w-21">
          <mxGeometry x="3.4782608695652173" width="156.52173913043478" height="80" as="geometry" />
        </mxCell>
        <mxCell id="Nxm5xJL6nCxTpszpzN9w-23" value="1.4" style="text;html=1;strokeColor=none;fillColor=none;align=center;verticalAlign=middle;whiteSpace=wrap;rounded=0;" vertex="1" parent="Nxm5xJL6nCxTpszpzN9w-21">
          <mxGeometry y="1.1428571428571428" width="26.08695652173913" height="22.857142857142854" as="geometry" />
        </mxCell>
        <mxCell id="Nxm5xJL6nCxTpszpzN9w-24" value="&lt;span style=&quot;color: rgb(0, 0, 0); font-family: Helvetica; font-size: 12px; font-style: normal; font-variant-ligatures: normal; font-variant-caps: normal; font-weight: 400; letter-spacing: normal; orphans: 2; text-indent: 0px; text-transform: none; widows: 2; word-spacing: 0px; -webkit-text-stroke-width: 0px; background-color: rgb(248, 249, 250); text-decoration-thickness: initial; text-decoration-style: initial; text-decoration-color: initial; float: none; display: inline !important;&quot;&gt;Create a tag for the order if it is to sew, to pack, or to book.&lt;/span&gt;" style="text;whiteSpace=wrap;html=1;align=center;" vertex="1" parent="Nxm5xJL6nCxTpszpzN9w-21">
          <mxGeometry x="31.478260869565215" y="21.43" width="115.65217391304347" height="45.71" as="geometry" />
        </mxCell>
        <mxCell id="Nxm5xJL6nCxTpszpzN9w-26" style="edgeStyle=orthogonalEdgeStyle;rounded=0;orthogonalLoop=1;jettySize=auto;html=1;" edge="1" parent="vyPgLdfNCkiu57tK5SRO-1" source="Nxm5xJL6nCxTpszpzN9w-4">
          <mxGeometry relative="1" as="geometry">
            <mxPoint x="235" y="255" as="targetPoint" />
          </mxGeometry>
        </mxCell>
        <mxCell id="Nxm5xJL6nCxTpszpzN9w-28" style="edgeStyle=orthogonalEdgeStyle;rounded=0;orthogonalLoop=1;jettySize=auto;html=1;entryX=0.5;entryY=0;entryDx=0;entryDy=0;" edge="1" parent="vyPgLdfNCkiu57tK5SRO-1" source="Nxm5xJL6nCxTpszpzN9w-17" target="Nxm5xJL6nCxTpszpzN9w-22">
          <mxGeometry relative="1" as="geometry" />
        </mxCell>
        <mxCell id="Nxm5xJL6nCxTpszpzN9w-35" style="edgeStyle=orthogonalEdgeStyle;rounded=0;orthogonalLoop=1;jettySize=auto;html=1;" edge="1" parent="vyPgLdfNCkiu57tK5SRO-1">
          <mxGeometry relative="1" as="geometry">
            <mxPoint x="355" y="380" as="targetPoint" />
            <mxPoint x="235" y="380" as="sourcePoint" />
          </mxGeometry>
        </mxCell>
        <mxCell id="5gQsr59cIi0GWM3koEkP-2" style="edgeStyle=orthogonalEdgeStyle;rounded=0;orthogonalLoop=1;jettySize=auto;html=1;" edge="1" parent="vyPgLdfNCkiu57tK5SRO-1" source="5gQsr59cIi0GWM3koEkP-1" target="jvLd8DcnQAI-piNBchvQ-0">
          <mxGeometry relative="1" as="geometry" />
        </mxCell>
        <mxCell id="5gQsr59cIi0GWM3koEkP-1" value="Customer" style="rounded=0;whiteSpace=wrap;html=1;strokeColor=default;fontFamily=Helvetica;fontSize=12;fontColor=default;fillColor=#FFFFFF;" vertex="1" parent="vyPgLdfNCkiu57tK5SRO-1">
          <mxGeometry x="710" y="30" width="120" height="60" as="geometry" />
        </mxCell>
        <mxCell id="5gQsr59cIi0GWM3koEkP-3" value="Confirms order" style="text;html=1;align=center;verticalAlign=middle;resizable=0;points=[];autosize=1;strokeColor=none;fillColor=none;" vertex="1" parent="vyPgLdfNCkiu57tK5SRO-1">
          <mxGeometry x="540" y="30" width="100" height="30" as="geometry" />
        </mxCell>
      </root>
    </mxGraphModel>
  </diagram>
  <diagram id="RyZXiVgUWgAvCr95qtm2" name="Level 2 DFD (Inventory Management)">
    <mxGraphModel dx="1038" dy="1679" grid="1" gridSize="10" guides="1" tooltips="1" connect="1" arrows="1" fold="1" page="1" pageScale="1" pageWidth="850" pageHeight="1100" math="0" shadow="0">
      <root>
        <mxCell id="0" />
        <mxCell id="1" parent="0" />
        <mxCell id="iFDCKDY6pU-fLbPsaZ80-5" style="edgeStyle=orthogonalEdgeStyle;rounded=0;orthogonalLoop=1;jettySize=auto;html=1;" parent="1" source="aTESThzU0vIGPHQOFSol-1" edge="1">
          <mxGeometry relative="1" as="geometry">
            <mxPoint x="410" y="-130" as="targetPoint" />
            <Array as="points">
              <mxPoint x="780" y="5" />
              <mxPoint x="780" y="-130" />
            </Array>
          </mxGeometry>
        </mxCell>
        <mxCell id="aTESThzU0vIGPHQOFSol-1" value="Packager" style="rounded=0;whiteSpace=wrap;html=1;strokeColor=default;fontFamily=Helvetica;fontSize=12;fontColor=default;fillColor=#FFFFFF;" parent="1" vertex="1">
          <mxGeometry x="560" y="-25" width="120" height="60" as="geometry" />
        </mxCell>
        <mxCell id="JsSvU4E5GXz-Ytsp-Bz8-5" style="edgeStyle=orthogonalEdgeStyle;rounded=0;orthogonalLoop=1;jettySize=auto;html=1;entryX=0;entryY=0.5;entryDx=0;entryDy=0;" parent="1" source="0PlmDxWghqGiz1AmtB1q-1" target="aTESThzU0vIGPHQOFSol-1" edge="1">
          <mxGeometry relative="1" as="geometry" />
        </mxCell>
        <mxCell id="iFDCKDY6pU-fLbPsaZ80-2" style="edgeStyle=orthogonalEdgeStyle;rounded=0;orthogonalLoop=1;jettySize=auto;html=1;entryX=0;entryY=0.5;entryDx=0;entryDy=0;" parent="1" source="0PlmDxWghqGiz1AmtB1q-1" target="iFDCKDY6pU-fLbPsaZ80-1" edge="1">
          <mxGeometry relative="1" as="geometry">
            <Array as="points">
              <mxPoint x="450" y="40" />
              <mxPoint x="450" y="100" />
            </Array>
          </mxGeometry>
        </mxCell>
        <mxCell id="iFDCKDY6pU-fLbPsaZ80-10" style="edgeStyle=orthogonalEdgeStyle;rounded=0;orthogonalLoop=1;jettySize=auto;html=1;entryX=0;entryY=0.5;entryDx=0;entryDy=0;" parent="1" source="0PlmDxWghqGiz1AmtB1q-1" target="JsSvU4E5GXz-Ytsp-Bz8-2" edge="1">
          <mxGeometry relative="1" as="geometry">
            <Array as="points">
              <mxPoint x="70" y="5" />
              <mxPoint x="70" y="-230" />
            </Array>
          </mxGeometry>
        </mxCell>
        <mxCell id="qDFzt_wjQ7FDNLzZ1WQ9-2" style="edgeStyle=orthogonalEdgeStyle;rounded=0;orthogonalLoop=1;jettySize=auto;html=1;" parent="1" source="0PlmDxWghqGiz1AmtB1q-1" target="qDFzt_wjQ7FDNLzZ1WQ9-1" edge="1">
          <mxGeometry relative="1" as="geometry" />
        </mxCell>
        <mxCell id="0PlmDxWghqGiz1AmtB1q-1" value="Inventory Management" style="shape=internalStorage;whiteSpace=wrap;html=1;backgroundOutline=1;rounded=1;strokeColor=default;fontFamily=Helvetica;fontSize=12;fontColor=default;fillColor=#FFFFFF;" parent="1" vertex="1">
          <mxGeometry x="250" y="-40" width="180" height="90" as="geometry" />
        </mxCell>
        <mxCell id="JsSvU4E5GXz-Ytsp-Bz8-3" style="edgeStyle=orthogonalEdgeStyle;rounded=0;orthogonalLoop=1;jettySize=auto;html=1;exitX=0.5;exitY=1;exitDx=0;exitDy=0;entryX=0.5;entryY=0;entryDx=0;entryDy=0;" parent="1" source="JsSvU4E5GXz-Ytsp-Bz8-2" target="l43ckfQpk11w9ldCvFy9-1" edge="1">
          <mxGeometry relative="1" as="geometry" />
        </mxCell>
        <mxCell id="JsSvU4E5GXz-Ytsp-Bz8-2" value="Admin" style="rounded=0;whiteSpace=wrap;html=1;strokeColor=default;fontFamily=Helvetica;fontSize=12;fontColor=default;fillColor=#FFFFFF;" parent="1" vertex="1">
          <mxGeometry x="280" y="-260" width="120" height="60" as="geometry" />
        </mxCell>
        <mxCell id="iFDCKDY6pU-fLbPsaZ80-6" style="edgeStyle=orthogonalEdgeStyle;rounded=0;orthogonalLoop=1;jettySize=auto;html=1;" parent="1" source="iFDCKDY6pU-fLbPsaZ80-1" edge="1">
          <mxGeometry relative="1" as="geometry">
            <mxPoint x="410" y="-110" as="targetPoint" />
            <Array as="points">
              <mxPoint x="780" y="100" />
              <mxPoint x="780" y="-110" />
            </Array>
          </mxGeometry>
        </mxCell>
        <mxCell id="iFDCKDY6pU-fLbPsaZ80-1" value="Sewer" style="rounded=0;whiteSpace=wrap;html=1;strokeColor=default;fontFamily=Helvetica;fontSize=12;fontColor=default;fillColor=#FFFFFF;" parent="1" vertex="1">
          <mxGeometry x="560" y="70" width="120" height="60" as="geometry" />
        </mxCell>
        <mxCell id="iFDCKDY6pU-fLbPsaZ80-8" value="" style="group" parent="1" vertex="1" connectable="0">
          <mxGeometry x="275" y="-140" width="130" height="45" as="geometry" />
        </mxCell>
        <mxCell id="l43ckfQpk11w9ldCvFy9-1" value="D" style="html=1;dashed=0;whitespace=wrap;shape=mxgraph.dfd.dataStoreID;align=left;spacingLeft=3;points=[[0,0],[0.5,0],[1,0],[0,0.5],[1,0.5],[0,1],[0.5,1],[1,1]];" parent="iFDCKDY6pU-fLbPsaZ80-8" vertex="1">
          <mxGeometry width="130" height="45" as="geometry" />
        </mxCell>
        <mxCell id="JsSvU4E5GXz-Ytsp-Bz8-1" value="Update Inventory" style="text;html=1;strokeColor=none;fillColor=none;align=center;verticalAlign=middle;whiteSpace=wrap;rounded=0;" parent="iFDCKDY6pU-fLbPsaZ80-8" vertex="1">
          <mxGeometry x="35" y="8" width="60" height="30" as="geometry" />
        </mxCell>
        <mxCell id="iFDCKDY6pU-fLbPsaZ80-9" style="edgeStyle=orthogonalEdgeStyle;rounded=0;orthogonalLoop=1;jettySize=auto;html=1;" parent="1" source="l43ckfQpk11w9ldCvFy9-1" target="0PlmDxWghqGiz1AmtB1q-1" edge="1">
          <mxGeometry relative="1" as="geometry" />
        </mxCell>
        <mxCell id="iFDCKDY6pU-fLbPsaZ80-13" value="Output Details" style="text;html=1;strokeColor=none;fillColor=none;align=center;verticalAlign=middle;whiteSpace=wrap;rounded=0;" parent="1" vertex="1">
          <mxGeometry x="80" y="-120" width="60" height="30" as="geometry" />
        </mxCell>
        <mxCell id="iFDCKDY6pU-fLbPsaZ80-14" value="Update Details" style="text;html=1;strokeColor=none;fillColor=none;align=center;verticalAlign=middle;whiteSpace=wrap;rounded=0;" parent="1" vertex="1">
          <mxGeometry x="610" y="-162" width="60" height="30" as="geometry" />
        </mxCell>
        <mxCell id="iFDCKDY6pU-fLbPsaZ80-15" value="Output Details" style="text;html=1;strokeColor=none;fillColor=none;align=center;verticalAlign=middle;whiteSpace=wrap;rounded=0;" parent="1" vertex="1">
          <mxGeometry x="470" y="5" width="60" height="30" as="geometry" />
        </mxCell>
        <mxCell id="iFDCKDY6pU-fLbPsaZ80-16" value="Output Details" style="text;html=1;strokeColor=none;fillColor=none;align=center;verticalAlign=middle;whiteSpace=wrap;rounded=0;" parent="1" vertex="1">
          <mxGeometry x="470" y="70" width="60" height="30" as="geometry" />
        </mxCell>
        <mxCell id="iFDCKDY6pU-fLbPsaZ80-17" value="Update Details" style="text;html=1;strokeColor=none;fillColor=none;align=center;verticalAlign=middle;whiteSpace=wrap;rounded=0;" parent="1" vertex="1">
          <mxGeometry x="340" y="-192" width="60" height="30" as="geometry" />
        </mxCell>
        <mxCell id="qDFzt_wjQ7FDNLzZ1WQ9-3" style="edgeStyle=orthogonalEdgeStyle;rounded=0;orthogonalLoop=1;jettySize=auto;html=1;" parent="1" source="qDFzt_wjQ7FDNLzZ1WQ9-1" target="0PlmDxWghqGiz1AmtB1q-1" edge="1">
          <mxGeometry relative="1" as="geometry" />
        </mxCell>
        <mxCell id="qDFzt_wjQ7FDNLzZ1WQ9-1" value="Data Base" style="shape=cylinder3;whiteSpace=wrap;html=1;boundedLbl=1;backgroundOutline=1;size=15;" parent="1" vertex="1">
          <mxGeometry x="300" y="120" width="80" height="100" as="geometry" />
        </mxCell>
      </root>
    </mxGraphModel>
  </diagram>
  <diagram name="Copy of Level 2 DFD (Inventory Management)" id="J-qji_dBth9w8USmKMJq">
    <mxGraphModel dx="1038" dy="1679" grid="1" gridSize="10" guides="1" tooltips="1" connect="1" arrows="1" fold="1" page="1" pageScale="1" pageWidth="850" pageHeight="1100" math="0" shadow="0">
      <root>
        <mxCell id="Yajv5OhPBQF3UXZH_DZK-0" />
        <mxCell id="Yajv5OhPBQF3UXZH_DZK-1" parent="Yajv5OhPBQF3UXZH_DZK-0" />
        <mxCell id="Yajv5OhPBQF3UXZH_DZK-2" style="edgeStyle=orthogonalEdgeStyle;rounded=0;orthogonalLoop=1;jettySize=auto;html=1;" edge="1" parent="Yajv5OhPBQF3UXZH_DZK-1" source="Yajv5OhPBQF3UXZH_DZK-3">
          <mxGeometry relative="1" as="geometry">
            <mxPoint x="410" y="-10" as="targetPoint" />
            <Array as="points">
              <mxPoint x="780" y="125" />
              <mxPoint x="780" y="-10" />
            </Array>
          </mxGeometry>
        </mxCell>
        <mxCell id="Yajv5OhPBQF3UXZH_DZK-3" value="Packager" style="rounded=0;whiteSpace=wrap;html=1;strokeColor=default;fontFamily=Helvetica;fontSize=12;fontColor=default;fillColor=#FFFFFF;" vertex="1" parent="Yajv5OhPBQF3UXZH_DZK-1">
          <mxGeometry x="560" y="95" width="120" height="60" as="geometry" />
        </mxCell>
        <mxCell id="Yajv5OhPBQF3UXZH_DZK-4" style="edgeStyle=orthogonalEdgeStyle;rounded=0;orthogonalLoop=1;jettySize=auto;html=1;entryX=0;entryY=0.5;entryDx=0;entryDy=0;" edge="1" parent="Yajv5OhPBQF3UXZH_DZK-1" source="Yajv5OhPBQF3UXZH_DZK-8" target="Yajv5OhPBQF3UXZH_DZK-3">
          <mxGeometry relative="1" as="geometry" />
        </mxCell>
        <mxCell id="Yajv5OhPBQF3UXZH_DZK-5" style="edgeStyle=orthogonalEdgeStyle;rounded=0;orthogonalLoop=1;jettySize=auto;html=1;entryX=0;entryY=0.5;entryDx=0;entryDy=0;" edge="1" parent="Yajv5OhPBQF3UXZH_DZK-1" source="Yajv5OhPBQF3UXZH_DZK-8" target="Yajv5OhPBQF3UXZH_DZK-12">
          <mxGeometry relative="1" as="geometry">
            <Array as="points">
              <mxPoint x="450" y="160" />
              <mxPoint x="450" y="220" />
            </Array>
          </mxGeometry>
        </mxCell>
        <mxCell id="Yajv5OhPBQF3UXZH_DZK-6" style="edgeStyle=orthogonalEdgeStyle;rounded=0;orthogonalLoop=1;jettySize=auto;html=1;entryX=0;entryY=0.5;entryDx=0;entryDy=0;" edge="1" parent="Yajv5OhPBQF3UXZH_DZK-1" source="Yajv5OhPBQF3UXZH_DZK-8" target="Yajv5OhPBQF3UXZH_DZK-10">
          <mxGeometry relative="1" as="geometry">
            <Array as="points">
              <mxPoint x="70" y="125" />
              <mxPoint x="70" y="-110" />
            </Array>
          </mxGeometry>
        </mxCell>
        <mxCell id="Yajv5OhPBQF3UXZH_DZK-7" style="edgeStyle=orthogonalEdgeStyle;rounded=0;orthogonalLoop=1;jettySize=auto;html=1;" edge="1" parent="Yajv5OhPBQF3UXZH_DZK-1" source="Yajv5OhPBQF3UXZH_DZK-8" target="Yajv5OhPBQF3UXZH_DZK-23">
          <mxGeometry relative="1" as="geometry" />
        </mxCell>
        <mxCell id="Yajv5OhPBQF3UXZH_DZK-8" value="Inventory Management" style="shape=internalStorage;whiteSpace=wrap;html=1;backgroundOutline=1;rounded=1;strokeColor=default;fontFamily=Helvetica;fontSize=12;fontColor=default;fillColor=#FFFFFF;" vertex="1" parent="Yajv5OhPBQF3UXZH_DZK-1">
          <mxGeometry x="250" y="80" width="180" height="90" as="geometry" />
        </mxCell>
        <mxCell id="Yajv5OhPBQF3UXZH_DZK-9" style="edgeStyle=orthogonalEdgeStyle;rounded=0;orthogonalLoop=1;jettySize=auto;html=1;exitX=0.5;exitY=1;exitDx=0;exitDy=0;entryX=0.5;entryY=0;entryDx=0;entryDy=0;" edge="1" parent="Yajv5OhPBQF3UXZH_DZK-1" source="Yajv5OhPBQF3UXZH_DZK-10" target="Yajv5OhPBQF3UXZH_DZK-14">
          <mxGeometry relative="1" as="geometry" />
        </mxCell>
        <mxCell id="Yajv5OhPBQF3UXZH_DZK-10" value="Admin" style="rounded=0;whiteSpace=wrap;html=1;strokeColor=default;fontFamily=Helvetica;fontSize=12;fontColor=default;fillColor=#FFFFFF;" vertex="1" parent="Yajv5OhPBQF3UXZH_DZK-1">
          <mxGeometry x="280" y="-140" width="120" height="60" as="geometry" />
        </mxCell>
        <mxCell id="Yajv5OhPBQF3UXZH_DZK-11" style="edgeStyle=orthogonalEdgeStyle;rounded=0;orthogonalLoop=1;jettySize=auto;html=1;" edge="1" parent="Yajv5OhPBQF3UXZH_DZK-1" source="Yajv5OhPBQF3UXZH_DZK-12">
          <mxGeometry relative="1" as="geometry">
            <mxPoint x="410" y="10" as="targetPoint" />
            <Array as="points">
              <mxPoint x="780" y="220" />
              <mxPoint x="780" y="10" />
            </Array>
          </mxGeometry>
        </mxCell>
        <mxCell id="Yajv5OhPBQF3UXZH_DZK-12" value="Sewer" style="rounded=0;whiteSpace=wrap;html=1;strokeColor=default;fontFamily=Helvetica;fontSize=12;fontColor=default;fillColor=#FFFFFF;" vertex="1" parent="Yajv5OhPBQF3UXZH_DZK-1">
          <mxGeometry x="560" y="190" width="120" height="60" as="geometry" />
        </mxCell>
        <mxCell id="Yajv5OhPBQF3UXZH_DZK-13" value="" style="group" vertex="1" connectable="0" parent="Yajv5OhPBQF3UXZH_DZK-1">
          <mxGeometry x="275" y="-20" width="130" height="45" as="geometry" />
        </mxCell>
        <mxCell id="Yajv5OhPBQF3UXZH_DZK-14" value="D" style="html=1;dashed=0;whitespace=wrap;shape=mxgraph.dfd.dataStoreID;align=left;spacingLeft=3;points=[[0,0],[0.5,0],[1,0],[0,0.5],[1,0.5],[0,1],[0.5,1],[1,1]];" vertex="1" parent="Yajv5OhPBQF3UXZH_DZK-13">
          <mxGeometry width="130" height="45" as="geometry" />
        </mxCell>
        <mxCell id="Yajv5OhPBQF3UXZH_DZK-15" value="Update Inventory" style="text;html=1;strokeColor=none;fillColor=none;align=center;verticalAlign=middle;whiteSpace=wrap;rounded=0;" vertex="1" parent="Yajv5OhPBQF3UXZH_DZK-13">
          <mxGeometry x="35" y="8" width="60" height="30" as="geometry" />
        </mxCell>
        <mxCell id="Yajv5OhPBQF3UXZH_DZK-16" style="edgeStyle=orthogonalEdgeStyle;rounded=0;orthogonalLoop=1;jettySize=auto;html=1;" edge="1" parent="Yajv5OhPBQF3UXZH_DZK-1" source="Yajv5OhPBQF3UXZH_DZK-14" target="Yajv5OhPBQF3UXZH_DZK-8">
          <mxGeometry relative="1" as="geometry" />
        </mxCell>
        <mxCell id="Yajv5OhPBQF3UXZH_DZK-17" value="Output Details" style="text;html=1;strokeColor=none;fillColor=none;align=center;verticalAlign=middle;whiteSpace=wrap;rounded=0;" vertex="1" parent="Yajv5OhPBQF3UXZH_DZK-1">
          <mxGeometry x="80" width="60" height="30" as="geometry" />
        </mxCell>
        <mxCell id="Yajv5OhPBQF3UXZH_DZK-18" value="Update Details" style="text;html=1;strokeColor=none;fillColor=none;align=center;verticalAlign=middle;whiteSpace=wrap;rounded=0;" vertex="1" parent="Yajv5OhPBQF3UXZH_DZK-1">
          <mxGeometry x="610" y="-42" width="60" height="30" as="geometry" />
        </mxCell>
        <mxCell id="Yajv5OhPBQF3UXZH_DZK-19" value="Output Details" style="text;html=1;strokeColor=none;fillColor=none;align=center;verticalAlign=middle;whiteSpace=wrap;rounded=0;" vertex="1" parent="Yajv5OhPBQF3UXZH_DZK-1">
          <mxGeometry x="470" y="125" width="60" height="30" as="geometry" />
        </mxCell>
        <mxCell id="Yajv5OhPBQF3UXZH_DZK-20" value="Output Details" style="text;html=1;strokeColor=none;fillColor=none;align=center;verticalAlign=middle;whiteSpace=wrap;rounded=0;" vertex="1" parent="Yajv5OhPBQF3UXZH_DZK-1">
          <mxGeometry x="470" y="190" width="60" height="30" as="geometry" />
        </mxCell>
        <mxCell id="Yajv5OhPBQF3UXZH_DZK-21" value="Update Details" style="text;html=1;strokeColor=none;fillColor=none;align=center;verticalAlign=middle;whiteSpace=wrap;rounded=0;" vertex="1" parent="Yajv5OhPBQF3UXZH_DZK-1">
          <mxGeometry x="340" y="-72" width="60" height="30" as="geometry" />
        </mxCell>
        <mxCell id="Yajv5OhPBQF3UXZH_DZK-22" style="edgeStyle=orthogonalEdgeStyle;rounded=0;orthogonalLoop=1;jettySize=auto;html=1;" edge="1" parent="Yajv5OhPBQF3UXZH_DZK-1" source="Yajv5OhPBQF3UXZH_DZK-23" target="Yajv5OhPBQF3UXZH_DZK-8">
          <mxGeometry relative="1" as="geometry" />
        </mxCell>
        <mxCell id="Yajv5OhPBQF3UXZH_DZK-23" value="Data Base" style="shape=cylinder3;whiteSpace=wrap;html=1;boundedLbl=1;backgroundOutline=1;size=15;" vertex="1" parent="Yajv5OhPBQF3UXZH_DZK-1">
          <mxGeometry x="300" y="240" width="80" height="100" as="geometry" />
        </mxCell>
        <mxCell id="SjAg3TivMBPiCUJlw-ml-0" value="Admin" style="rounded=0;whiteSpace=wrap;html=1;strokeColor=default;fontFamily=Helvetica;fontSize=12;fontColor=default;fillColor=#FFFFFF;" vertex="1" parent="Yajv5OhPBQF3UXZH_DZK-1">
          <mxGeometry x="50" y="-1070" width="120" height="60" as="geometry" />
        </mxCell>
        <mxCell id="SjAg3TivMBPiCUJlw-ml-1" value="Packager&amp;nbsp;" style="rounded=0;whiteSpace=wrap;html=1;strokeColor=default;fontFamily=Helvetica;fontSize=12;fontColor=default;fillColor=#FFFFFF;" vertex="1" parent="Yajv5OhPBQF3UXZH_DZK-1">
          <mxGeometry x="180" y="-1070" width="120" height="60" as="geometry" />
        </mxCell>
        <mxCell id="2O_1-qyxAsxFZdUMhauc-0" value="Sewer" style="rounded=0;whiteSpace=wrap;html=1;strokeColor=default;fontFamily=Helvetica;fontSize=12;fontColor=default;fillColor=#FFFFFF;" vertex="1" parent="Yajv5OhPBQF3UXZH_DZK-1">
          <mxGeometry x="310" y="-1070" width="120" height="60" as="geometry" />
        </mxCell>
        <mxCell id="y8N9nQnvMXF4aaRwIIN3-0" value="Customer Relations" style="rounded=0;whiteSpace=wrap;html=1;strokeColor=default;fontFamily=Helvetica;fontSize=12;fontColor=default;fillColor=#FFFFFF;" vertex="1" parent="Yajv5OhPBQF3UXZH_DZK-1">
          <mxGeometry x="440" y="-1070" width="120" height="60" as="geometry" />
        </mxCell>
        <mxCell id="GnJVsXl25DrCJRavSNwe-0" value="" style="group" vertex="1" connectable="0" parent="Yajv5OhPBQF3UXZH_DZK-1">
          <mxGeometry x="70" y="-940" width="184" height="70" as="geometry" />
        </mxCell>
        <mxCell id="GnJVsXl25DrCJRavSNwe-1" value="" style="shape=internalStorage;whiteSpace=wrap;html=1;backgroundOutline=1;rounded=1;strokeColor=default;fontFamily=Helvetica;fontSize=12;fontColor=default;fillColor=#FFFFFF;" vertex="1" parent="GnJVsXl25DrCJRavSNwe-0">
          <mxGeometry x="4" width="180" height="70" as="geometry" />
        </mxCell>
        <mxCell id="GnJVsXl25DrCJRavSNwe-2" value="2.1" style="text;html=1;strokeColor=none;fillColor=none;align=center;verticalAlign=middle;whiteSpace=wrap;rounded=0;" vertex="1" parent="GnJVsXl25DrCJRavSNwe-0">
          <mxGeometry y="1" width="30" height="20" as="geometry" />
        </mxCell>
        <mxCell id="GnJVsXl25DrCJRavSNwe-3" value="&lt;span style=&quot;color: rgb(0, 0, 0); font-family: Helvetica; font-size: 12px; font-style: normal; font-variant-ligatures: normal; font-variant-caps: normal; font-weight: 400; letter-spacing: normal; orphans: 2; text-indent: 0px; text-transform: none; widows: 2; word-spacing: 0px; -webkit-text-stroke-width: 0px; background-color: rgb(248, 249, 250); text-decoration-thickness: initial; text-decoration-style: initial; text-decoration-color: initial; float: none; display: inline !important;&quot;&gt;Import customer information via screenshot&lt;/span&gt;" style="text;whiteSpace=wrap;html=1;align=center;" vertex="1" parent="GnJVsXl25DrCJRavSNwe-0">
          <mxGeometry x="27" y="24" width="150" height="40" as="geometry" />
        </mxCell>
        <mxCell id="GnJVsXl25DrCJRavSNwe-4" value="View product stock count" style="rounded=0;whiteSpace=wrap;html=1;strokeColor=default;fontFamily=Helvetica;fontSize=12;fontColor=default;fillColor=#FFFFFF;" vertex="1" parent="Yajv5OhPBQF3UXZH_DZK-1">
          <mxGeometry x="710" y="-1020" width="120" height="60" as="geometry" />
        </mxCell>
        <mxCell id="GnJVsXl25DrCJRavSNwe-5" value="Update product" style="rounded=0;whiteSpace=wrap;html=1;strokeColor=default;fontFamily=Helvetica;fontSize=12;fontColor=default;fillColor=#FFFFFF;" vertex="1" parent="Yajv5OhPBQF3UXZH_DZK-1">
          <mxGeometry x="710" y="-950" width="120" height="60" as="geometry" />
        </mxCell>
        <mxCell id="GnJVsXl25DrCJRavSNwe-6" value="Add new product in inventory" style="rounded=0;whiteSpace=wrap;html=1;strokeColor=default;fontFamily=Helvetica;fontSize=12;fontColor=default;fillColor=#FFFFFF;" vertex="1" parent="Yajv5OhPBQF3UXZH_DZK-1">
          <mxGeometry x="710" y="-880" width="120" height="60" as="geometry" />
        </mxCell>
        <mxCell id="_uyBnb8PpYgC9aF0J6Y1-1" value="Browse inventory" style="rounded=0;whiteSpace=wrap;html=1;strokeColor=default;fontFamily=Helvetica;fontSize=12;fontColor=default;fillColor=#FFFFFF;" vertex="1" parent="Yajv5OhPBQF3UXZH_DZK-1">
          <mxGeometry x="710" y="-1090" width="120" height="60" as="geometry" />
        </mxCell>
        <mxCell id="_uyBnb8PpYgC9aF0J6Y1-2" value="Insert product and&amp;nbsp;" style="rounded=0;whiteSpace=wrap;html=1;strokeColor=default;fontFamily=Helvetica;fontSize=12;fontColor=default;fillColor=#FFFFFF;" vertex="1" parent="Yajv5OhPBQF3UXZH_DZK-1">
          <mxGeometry x="550" y="-960" width="120" height="60" as="geometry" />
        </mxCell>
      </root>
    </mxGraphModel>
  </diagram>
  <diagram id="gpqT1ZyUy8lCyg0mmY5V" name="Level 2 DFD (Customer Bank)">
    <mxGraphModel dx="1888" dy="579" grid="1" gridSize="10" guides="1" tooltips="1" connect="1" arrows="1" fold="1" page="1" pageScale="1" pageWidth="850" pageHeight="1100" math="0" shadow="0">
      <root>
        <mxCell id="0" />
        <mxCell id="1" parent="0" />
        <mxCell id="3EQeHcJqmsBbrb4ucAbh-3" style="edgeStyle=orthogonalEdgeStyle;rounded=0;orthogonalLoop=1;jettySize=auto;html=1;" parent="1" source="0IzHDThsrfP4rfvWQ2Ya-1" target="3EQeHcJqmsBbrb4ucAbh-1" edge="1">
          <mxGeometry relative="1" as="geometry" />
        </mxCell>
        <mxCell id="0IzHDThsrfP4rfvWQ2Ya-1" value="Data Bank" style="shape=cylinder3;whiteSpace=wrap;html=1;boundedLbl=1;backgroundOutline=1;size=15;" parent="1" vertex="1">
          <mxGeometry x="-70" y="465" width="60" height="80" as="geometry" />
        </mxCell>
        <mxCell id="3EQeHcJqmsBbrb4ucAbh-2" style="edgeStyle=orthogonalEdgeStyle;rounded=0;orthogonalLoop=1;jettySize=auto;html=1;entryX=1;entryY=0.5;entryDx=0;entryDy=0;entryPerimeter=0;" parent="1" source="3EQeHcJqmsBbrb4ucAbh-1" target="0IzHDThsrfP4rfvWQ2Ya-1" edge="1">
          <mxGeometry relative="1" as="geometry" />
        </mxCell>
        <mxCell id="PbyQcGZz1t0oOU-YN9o6-12" style="edgeStyle=orthogonalEdgeStyle;rounded=0;orthogonalLoop=1;jettySize=auto;html=1;" parent="1" source="3EQeHcJqmsBbrb4ucAbh-1" target="PbyQcGZz1t0oOU-YN9o6-9" edge="1">
          <mxGeometry relative="1" as="geometry" />
        </mxCell>
        <mxCell id="PbyQcGZz1t0oOU-YN9o6-20" style="edgeStyle=orthogonalEdgeStyle;rounded=0;orthogonalLoop=1;jettySize=auto;html=1;entryX=0;entryY=0.5;entryDx=0;entryDy=0;" parent="1" source="3EQeHcJqmsBbrb4ucAbh-1" target="PbyQcGZz1t0oOU-YN9o6-1" edge="1">
          <mxGeometry relative="1" as="geometry">
            <Array as="points">
              <mxPoint x="110" y="505" />
              <mxPoint x="110" y="360" />
            </Array>
          </mxGeometry>
        </mxCell>
        <mxCell id="3EQeHcJqmsBbrb4ucAbh-1" value="Customer Bank" style="shape=internalStorage;whiteSpace=wrap;html=1;backgroundOutline=1;rounded=1;strokeColor=default;fontFamily=Helvetica;fontSize=12;fontColor=default;fillColor=#FFFFFF;" parent="1" vertex="1">
          <mxGeometry x="130" y="460" width="180" height="90" as="geometry" />
        </mxCell>
        <mxCell id="PbyQcGZz1t0oOU-YN9o6-4" style="edgeStyle=orthogonalEdgeStyle;rounded=0;orthogonalLoop=1;jettySize=auto;html=1;" parent="1" source="PbyQcGZz1t0oOU-YN9o6-1" target="PbyQcGZz1t0oOU-YN9o6-2" edge="1">
          <mxGeometry relative="1" as="geometry" />
        </mxCell>
        <mxCell id="PbyQcGZz1t0oOU-YN9o6-19" style="edgeStyle=orthogonalEdgeStyle;rounded=0;orthogonalLoop=1;jettySize=auto;html=1;entryX=0.5;entryY=0;entryDx=0;entryDy=0;" parent="1" source="PbyQcGZz1t0oOU-YN9o6-1" target="3EQeHcJqmsBbrb4ucAbh-1" edge="1">
          <mxGeometry relative="1" as="geometry" />
        </mxCell>
        <mxCell id="PbyQcGZz1t0oOU-YN9o6-1" value="Customer Relations" style="rounded=0;whiteSpace=wrap;html=1;strokeColor=default;fontFamily=Helvetica;fontSize=12;fontColor=default;fillColor=#FFFFFF;" parent="1" vertex="1">
          <mxGeometry x="160" y="330" width="120" height="60" as="geometry" />
        </mxCell>
        <mxCell id="PbyQcGZz1t0oOU-YN9o6-3" style="edgeStyle=orthogonalEdgeStyle;rounded=0;orthogonalLoop=1;jettySize=auto;html=1;entryX=1;entryY=0.5;entryDx=0;entryDy=0;" parent="1" source="PbyQcGZz1t0oOU-YN9o6-2" target="PbyQcGZz1t0oOU-YN9o6-1" edge="1">
          <mxGeometry relative="1" as="geometry" />
        </mxCell>
        <mxCell id="PbyQcGZz1t0oOU-YN9o6-2" value="Customer" style="rounded=0;whiteSpace=wrap;html=1;strokeColor=default;fontFamily=Helvetica;fontSize=12;fontColor=default;fillColor=#FFFFFF;" parent="1" vertex="1">
          <mxGeometry x="400" y="330" width="120" height="60" as="geometry" />
        </mxCell>
        <mxCell id="PbyQcGZz1t0oOU-YN9o6-5" value="Transaction Details" style="text;html=1;strokeColor=none;fillColor=none;align=center;verticalAlign=middle;whiteSpace=wrap;rounded=0;" parent="1" vertex="1">
          <mxGeometry x="310" y="320" width="60" height="30" as="geometry" />
        </mxCell>
        <mxCell id="PbyQcGZz1t0oOU-YN9o6-13" style="edgeStyle=orthogonalEdgeStyle;rounded=0;orthogonalLoop=1;jettySize=auto;html=1;" parent="1" source="PbyQcGZz1t0oOU-YN9o6-9" target="3EQeHcJqmsBbrb4ucAbh-1" edge="1">
          <mxGeometry relative="1" as="geometry" />
        </mxCell>
        <mxCell id="PbyQcGZz1t0oOU-YN9o6-9" value="Admin" style="rounded=0;whiteSpace=wrap;html=1;strokeColor=default;fontFamily=Helvetica;fontSize=12;fontColor=default;fillColor=#FFFFFF;" parent="1" vertex="1">
          <mxGeometry x="160" y="660" width="120" height="60" as="geometry" />
        </mxCell>
        <mxCell id="PbyQcGZz1t0oOU-YN9o6-14" value="Incoming/Upcoming Data" style="text;html=1;strokeColor=none;fillColor=none;align=center;verticalAlign=middle;whiteSpace=wrap;rounded=0;" parent="1" vertex="1">
          <mxGeometry x="20" y="460" width="60" height="30" as="geometry" />
        </mxCell>
        <mxCell id="PbyQcGZz1t0oOU-YN9o6-15" value="Viewing /Editing Data" style="text;html=1;strokeColor=none;fillColor=none;align=center;verticalAlign=middle;whiteSpace=wrap;rounded=0;" parent="1" vertex="1">
          <mxGeometry x="230" y="590" width="120" height="30" as="geometry" />
        </mxCell>
        <mxCell id="PbyQcGZz1t0oOU-YN9o6-16" value="Uploading Data" style="text;html=1;strokeColor=none;fillColor=none;align=center;verticalAlign=middle;whiteSpace=wrap;rounded=0;" parent="1" vertex="1">
          <mxGeometry x="210" y="410" width="120" height="30" as="geometry" />
        </mxCell>
      </root>
    </mxGraphModel>
  </diagram>
  <diagram id="h047D5BeBJHMSFGpoM1Z" name="Level 2 DFD (Business Analytics)">
    <mxGraphModel dx="1888" dy="579" grid="1" gridSize="10" guides="1" tooltips="1" connect="1" arrows="1" fold="1" page="1" pageScale="1" pageWidth="850" pageHeight="1100" math="0" shadow="0">
      <root>
        <mxCell id="0" />
        <mxCell id="1" parent="0" />
        <mxCell id="1toyNuGhjmfHfQxEifY6-1" value="Admin" style="rounded=0;whiteSpace=wrap;html=1;strokeColor=default;fontFamily=Helvetica;fontSize=12;fontColor=default;fillColor=#FFFFFF;" parent="1" vertex="1">
          <mxGeometry x="-310" y="300" width="120" height="60" as="geometry" />
        </mxCell>
        <mxCell id="3NcfyN4kKfGJyUNJ9LfS-3" style="edgeStyle=orthogonalEdgeStyle;rounded=0;orthogonalLoop=1;jettySize=auto;html=1;" parent="1" source="aobkX_6Ex0fPHtxpCkJ1-1" target="3NcfyN4kKfGJyUNJ9LfS-1" edge="1">
          <mxGeometry relative="1" as="geometry" />
        </mxCell>
        <mxCell id="3NcfyN4kKfGJyUNJ9LfS-5" style="edgeStyle=orthogonalEdgeStyle;rounded=0;orthogonalLoop=1;jettySize=auto;html=1;entryX=0;entryY=0.5;entryDx=0;entryDy=0;" parent="1" source="aobkX_6Ex0fPHtxpCkJ1-1" target="1toyNuGhjmfHfQxEifY6-1" edge="1">
          <mxGeometry relative="1" as="geometry" />
        </mxCell>
        <mxCell id="aobkX_6Ex0fPHtxpCkJ1-1" value="Business Analytics" style="shape=internalStorage;whiteSpace=wrap;html=1;backgroundOutline=1;rounded=1;strokeColor=default;fontFamily=Helvetica;fontSize=12;fontColor=default;fillColor=#FFFFFF;" parent="1" vertex="1">
          <mxGeometry x="-650" y="285" width="180" height="90" as="geometry" />
        </mxCell>
        <mxCell id="3NcfyN4kKfGJyUNJ9LfS-2" style="edgeStyle=orthogonalEdgeStyle;rounded=0;orthogonalLoop=1;jettySize=auto;html=1;" parent="1" source="3NcfyN4kKfGJyUNJ9LfS-1" target="aobkX_6Ex0fPHtxpCkJ1-1" edge="1">
          <mxGeometry relative="1" as="geometry" />
        </mxCell>
        <mxCell id="3NcfyN4kKfGJyUNJ9LfS-1" value="Data Bank" style="shape=cylinder3;whiteSpace=wrap;html=1;boundedLbl=1;backgroundOutline=1;size=15;" parent="1" vertex="1">
          <mxGeometry x="-590" y="120" width="60" height="80" as="geometry" />
        </mxCell>
        <mxCell id="3NcfyN4kKfGJyUNJ9LfS-6" value="Output Data" style="text;html=1;strokeColor=none;fillColor=none;align=center;verticalAlign=middle;whiteSpace=wrap;rounded=0;" parent="1" vertex="1">
          <mxGeometry x="-430" y="300" width="90" height="30" as="geometry" />
        </mxCell>
      </root>
    </mxGraphModel>
  </diagram>
  <diagram id="uM5hwxMdLRJelfbQzC5A" name="Level 2 DFD(Import Screenshot)">
    <mxGraphModel dx="1038" dy="579" grid="1" gridSize="10" guides="1" tooltips="1" connect="1" arrows="1" fold="1" page="1" pageScale="1" pageWidth="850" pageHeight="1100" math="0" shadow="0">
      <root>
        <mxCell id="0" />
        <mxCell id="1" parent="0" />
        <mxCell id="e2TBjBxEdAyzH4wHJoTP-3" style="edgeStyle=orthogonalEdgeStyle;rounded=0;orthogonalLoop=1;jettySize=auto;html=1;exitX=1;exitY=0.5;exitDx=0;exitDy=0;entryX=0;entryY=0.5;entryDx=0;entryDy=0;" parent="1" source="e2TBjBxEdAyzH4wHJoTP-4" target="e2TBjBxEdAyzH4wHJoTP-6" edge="1">
          <mxGeometry relative="1" as="geometry" />
        </mxCell>
        <mxCell id="e2TBjBxEdAyzH4wHJoTP-4" value="&lt;strong style=&quot;margin: 0px; padding: 0px; user-select: text; -webkit-user-drag: none; -webkit-tap-highlight-color: transparent; font-family: Calibri; background-color: rgb(255, 255, 255);&quot; data-colorparams=&quot;#000000_null_null&quot;&gt;&lt;font style=&quot;font-size: 17px;&quot;&gt;Customer relations&lt;/font&gt;&lt;/strong&gt;" style="rounded=0;whiteSpace=wrap;html=1;" parent="1" vertex="1">
          <mxGeometry x="216" y="550" width="110" height="60" as="geometry" />
        </mxCell>
        <mxCell id="Mqb9DyKzTnac2MePSqwo-9" value="" style="edgeStyle=orthogonalEdgeStyle;rounded=0;orthogonalLoop=1;jettySize=auto;html=1;" parent="1" source="e2TBjBxEdAyzH4wHJoTP-6" target="Mqb9DyKzTnac2MePSqwo-2" edge="1">
          <mxGeometry relative="1" as="geometry" />
        </mxCell>
        <mxCell id="e2TBjBxEdAyzH4wHJoTP-6" value="&lt;strong style=&quot;margin: 0px; padding: 0px; user-select: text; -webkit-user-drag: none; -webkit-tap-highlight-color: transparent; font-family: Calibri; background-color: rgb(255, 255, 255);&quot; data-colorparams=&quot;#000000_null_null&quot;&gt;&lt;font style=&quot;font-size: 15px;&quot;&gt;Screenshot Customer Information&lt;/font&gt;&lt;/strong&gt;" style="rounded=0;whiteSpace=wrap;html=1;" parent="1" vertex="1">
          <mxGeometry x="365" y="550" width="120" height="60" as="geometry" />
        </mxCell>
        <mxCell id="e2TBjBxEdAyzH4wHJoTP-7" style="edgeStyle=orthogonalEdgeStyle;rounded=0;orthogonalLoop=1;jettySize=auto;html=1;exitX=1;exitY=0.5;exitDx=0;exitDy=0;entryX=0;entryY=0.5;entryDx=0;entryDy=0;" parent="1" source="e2TBjBxEdAyzH4wHJoTP-8" target="e2TBjBxEdAyzH4wHJoTP-4" edge="1">
          <mxGeometry relative="1" as="geometry" />
        </mxCell>
        <mxCell id="e2TBjBxEdAyzH4wHJoTP-8" value="&lt;strong style=&quot;margin: 0px; padding: 0px; user-select: text; -webkit-user-drag: none; -webkit-tap-highlight-color: transparent; font-family: Calibri; background-color: rgb(255, 255, 255);&quot; data-colorparams=&quot;#000000_null_null&quot;&gt;&lt;font style=&quot;font-size: 19px;&quot;&gt;Customer&lt;/font&gt;&lt;/strong&gt;" style="rounded=0;whiteSpace=wrap;html=1;" parent="1" vertex="1">
          <mxGeometry x="66" y="550" width="110" height="60" as="geometry" />
        </mxCell>
        <mxCell id="e2TBjBxEdAyzH4wHJoTP-9" style="edgeStyle=orthogonalEdgeStyle;rounded=0;orthogonalLoop=1;jettySize=auto;html=1;exitX=0.5;exitY=1;exitDx=0;exitDy=0;entryX=0.5;entryY=0;entryDx=0;entryDy=0;entryPerimeter=0;" parent="1" source="e2TBjBxEdAyzH4wHJoTP-10" target="e2TBjBxEdAyzH4wHJoTP-11" edge="1">
          <mxGeometry relative="1" as="geometry" />
        </mxCell>
        <mxCell id="e2TBjBxEdAyzH4wHJoTP-10" value="&lt;strong style=&quot;margin: 0px; padding: 0px; user-select: text; -webkit-user-drag: none; -webkit-tap-highlight-color: transparent; font-family: Calibri; background-color: rgb(255, 255, 255);&quot; data-colorparams=&quot;#000000_null_null&quot;&gt;&lt;font style=&quot;font-size: 16px;&quot;&gt;Convert Screenshot to text&lt;/font&gt;&lt;/strong&gt;" style="rounded=0;whiteSpace=wrap;html=1;" parent="1" vertex="1">
          <mxGeometry x="666" y="550" width="110" height="60" as="geometry" />
        </mxCell>
        <mxCell id="e2TBjBxEdAyzH4wHJoTP-11" value="&lt;strong style=&quot;margin: 0px; padding: 0px; user-select: text; -webkit-user-drag: none; -webkit-tap-highlight-color: transparent; font-family: Calibri; font-size: 15px; background-color: rgb(255, 255, 255);&quot; data-colorparams=&quot;#000000_null_null&quot;&gt;Save information into customer Database&lt;/strong&gt;" style="strokeWidth=2;html=1;shape=mxgraph.flowchart.direct_data;whiteSpace=wrap;" parent="1" vertex="1">
          <mxGeometry x="658.5" y="680" width="125" height="90" as="geometry" />
        </mxCell>
        <mxCell id="Mqb9DyKzTnac2MePSqwo-1" value="" style="group" parent="1" vertex="1" connectable="0">
          <mxGeometry x="510" y="550" width="130" height="60" as="geometry" />
        </mxCell>
        <mxCell id="Mqb9DyKzTnac2MePSqwo-2" value="D&lt;span style=&quot;white-space: pre;&quot;&gt; &lt;/span&gt;" style="html=1;dashed=0;whitespace=wrap;shape=mxgraph.dfd.dataStoreID;align=left;spacingLeft=3;points=[[0,0],[0.5,0],[1,0],[0,0.5],[1,0.5],[0,1],[0.5,1],[1,1]];" parent="Mqb9DyKzTnac2MePSqwo-1" vertex="1">
          <mxGeometry width="130" height="60" as="geometry" />
        </mxCell>
        <mxCell id="Mqb9DyKzTnac2MePSqwo-10" value="Text" style="text;html=1;strokeColor=none;fillColor=none;align=center;verticalAlign=middle;whiteSpace=wrap;rounded=0;" parent="Mqb9DyKzTnac2MePSqwo-1" vertex="1">
          <mxGeometry x="50" y="15" width="60" height="30" as="geometry" />
        </mxCell>
        <mxCell id="Mqb9DyKzTnac2MePSqwo-6" value="" style="edgeStyle=orthogonalEdgeStyle;rounded=0;orthogonalLoop=1;jettySize=auto;html=1;" parent="1" source="Mqb9DyKzTnac2MePSqwo-2" target="e2TBjBxEdAyzH4wHJoTP-10" edge="1">
          <mxGeometry relative="1" as="geometry" />
        </mxCell>
      </root>
    </mxGraphModel>
  </diagram>
</mxfile>
